<svg width="20" height="20" viewBox="0 0 20 20" fill="none" xmlns="http://www.w3.org/2000/svg">
<path d="M5.37827 8.1905L3.14481 10.424C2.31068 11.2581 1.831 12.3931 1.83976 13.5859C1.84853 14.7787 2.31771 15.9206 3.19143 16.7673C4.03811 17.641 5.18024 18.1102 6.37286 18.119C7.59268 18.1279 8.70079 17.6753 9.53497 16.8411L11.7684 14.6077M14.6212 11.8094L16.8547 9.57597C17.6888 8.74183 18.1685 7.60687 18.1597 6.41406C18.151 5.22124 17.6818 4.07936 16.8081 3.23262C15.9616 2.38614 14.8197 1.91693 13.6268 1.90816C12.434 1.8994 11.2989 2.35185 10.4647 3.18601L8.23128 5.41946M6.61286 13.3271L13.3132 6.62676" stroke="black" stroke-width="2" stroke-linecap="round" stroke-linejoin="round"/>
</svg>
