<svg viewBox="0 0 58 43" fill="none" xmlns="http://www.w3.org/2000/svg">
<path d="M24.0803 10.1655C26.3924 10.1655 28.3261 12.0796 27.6512 14.2909C27.5187 14.7251 27.3652 15.1533 27.1908 15.5742C26.4806 17.2889 25.4395 18.847 24.1271 20.1594C22.8147 21.4718 21.2566 22.5129 19.5419 23.2231C17.8271 23.9334 15.9892 24.299 14.1332 24.299C12.2772 24.299 10.4393 23.9334 8.72457 23.2231C7.00982 22.5129 5.45176 21.4718 4.13934 20.1594C2.82693 18.847 1.78587 17.2889 1.07559 15.5742C0.901273 15.1533 0.747715 14.7251 0.615229 14.2909C-0.0596319 12.0796 1.87403 10.1655 4.18608 10.1655L6.11017 10.1655C7.35957 10.1655 8.3328 11.2158 8.81093 12.3701C9.10044 13.069 9.52477 13.7041 10.0597 14.239C10.5947 14.774 11.2297 15.1983 11.9286 15.4878C12.6276 15.7773 13.3767 15.9263 14.1332 15.9263C14.8897 15.9263 15.6388 15.7773 16.3378 15.4878C17.0367 15.1983 17.6718 14.774 18.2067 14.239C18.7417 13.7041 19.166 13.069 19.4555 12.3701C19.9336 11.2158 20.9069 10.1655 22.1563 10.1655H24.0803Z" fill="#8E59FF"/>
<path d="M57.6905 28.5978C57.6905 30.4538 57.3249 32.2917 56.6147 34.0065C55.9044 35.7212 54.8633 37.2793 53.5509 38.5917C52.2385 39.9041 50.6804 40.9452 48.9657 41.6554C47.2509 42.3657 45.4131 42.7313 43.557 42.7313C41.701 42.7313 39.8631 42.3657 38.1484 41.6554C36.4336 40.9452 34.8756 39.9041 33.5632 38.5917C32.2508 37.2793 31.2097 35.7212 30.4994 34.0065C30.3251 33.5856 30.1715 33.1573 30.0391 32.7232C29.3642 30.5119 31.2979 28.5978 33.6099 28.5978H35.534C36.7834 28.5978 37.7566 29.6481 38.2348 30.8024C38.5243 31.5013 38.9486 32.1364 39.4835 32.6713C40.0185 33.2063 40.6535 33.6306 41.3525 33.9201C42.0514 34.2096 42.8005 34.3586 43.557 34.3586C44.3136 34.3586 45.0627 34.2096 45.7616 33.9201C46.4605 33.6306 47.0956 33.2063 47.6305 32.6713C48.1655 32.1364 48.5898 31.5013 48.8793 30.8024C49.1688 30.1034 49.3178 29.3543 49.3178 28.5978H57.6905Z" fill="#8E59FF"/>
<path d="M49.3178 28.5978H57.6905V13.7742C57.6905 11.4622 55.8162 9.58789 53.5042 9.58789C51.1921 9.58789 49.3178 11.4622 49.3178 13.7742V28.5978Z" fill="#8E59FF"/>
<path d="M22.4788 17.1084C24.4305 18.5363 25.9831 20.4411 26.9883 22.6405C27.9934 24.84 28.4173 27.2605 28.2196 29.6707C28.0219 32.0808 27.209 34.3999 25.8589 36.4061C24.5087 38.4123 22.6664 40.0385 20.5081 41.1292C18.3498 42.2199 15.9477 42.7386 13.5317 42.6356C11.1156 42.5326 8.76644 41.8115 6.70876 40.5411C4.65109 39.2708 2.95379 37.4937 1.7792 35.3799C1.28636 34.4929 0.892463 33.5592 0.601839 32.5954C-0.0656499 30.3818 1.87432 28.4742 4.18632 28.4819L5.4316 28.4861C7.05585 28.4914 8.30882 29.8934 9.09775 31.3132C9.57652 32.1748 10.2684 32.8991 11.1071 33.4169C11.9458 33.9347 12.9034 34.2287 13.8882 34.2707C14.873 34.3126 15.8521 34.1012 16.7318 33.6567C17.6116 33.2121 18.3625 32.5492 18.9129 31.7315C19.4632 30.9137 19.7945 29.9684 19.8751 28.986C19.9557 28.0036 19.7829 27.017 19.3732 26.1205C18.9635 25.224 18.3306 24.4476 17.5351 23.8655L22.4788 17.1084Z" fill="#8E59FF"/>
<circle cx="23.5558" cy="3.71933" r="3.71933" fill="#8E59FF"/>
<circle cx="4.87607" cy="3.71933" r="3.71933" fill="#8E59FF"/>
</svg>
