<svg  viewBox="0 0 718 620" fill="none" xmlns="http://www.w3.org/2000/svg">
<g clip-path="url(#clip0_5578_2830)">
<rect width="718" height="620" fill="white"/>
<path d="M236.47 432.753C236.47 513.327 171.152 578.645 90.5777 578.645C10.0037 578.645 -55.3145 513.327 -55.3145 432.753C-55.3145 352.179 10.0037 286.861 90.5777 286.861C171.152 286.861 236.47 352.179 236.47 432.753Z" fill="url(#paint0_radial_5578_2830)"/>
<g filter="url(#filter0_bd_5578_2830)">
<path d="M151.779 349.99C154.32 342.236 162.667 338.011 170.421 340.552L276.994 375.485C284.748 378.026 288.974 386.373 286.432 394.127L254.089 492.801C251.547 500.555 243.2 504.781 235.446 502.239L128.873 467.307C121.119 464.765 116.894 456.419 119.435 448.665L151.779 349.99Z" fill="white" fill-opacity="0.5" shape-rendering="crispEdges"/>
</g>
<path d="M182.828 405.1L183.996 401.144L185.107 401.472L182.001 411.992L180.89 411.664L182.524 406.132L181.186 405.737L179.616 411.053L178.539 410.735L181.535 400.589L182.612 400.907L181.491 404.705L182.828 405.1ZM175.829 400.753L176.134 399.722L180.113 400.897L179.839 401.826C179.002 404.66 177.126 406.826 174.211 408.323L173.639 407.255C174.924 406.632 176 405.84 176.866 404.88C177.735 403.913 178.337 402.862 178.672 401.728L178.709 401.604L175.829 400.753Z" fill="#8E59FF"/>
<path d="M171.348 408.181L170.214 407.847L172.484 400.16L169.906 401.211L169.511 400.17L173.095 398.714L174.059 398.999L171.348 408.181Z" fill="#8E59FF"/>
<path d="M214.908 405.532L218.015 395.011L219.114 395.336L216.008 405.856L214.908 405.532ZM212.923 397.686L214.601 398.182L215.689 394.497L216.766 394.815L213.77 404.961L212.693 404.643L214.297 399.213L212.619 398.718L212.923 397.686ZM212.254 395.948C212.033 396.696 211.738 397.414 211.371 398.103L212.66 402.501L211.581 402.861L210.562 399.38C209.913 400.273 209.058 401.122 207.999 401.926L207.335 401.003C208.324 400.268 209.133 399.476 209.762 398.626C210.391 397.777 210.874 396.781 211.211 395.64L211.378 395.073L209.644 394.561L209.948 393.529L214.528 394.882L214.223 395.913L212.421 395.381L212.254 395.948Z" fill="#161A3F"/>
<path d="M206.521 396.03L208.051 396.482L207.746 397.513L206.216 397.062L204.613 402.492L203.479 402.157L206.585 391.637L207.719 391.971L206.521 396.03ZM203.304 392.689L199.166 391.468L199.471 390.436L204.742 391.992L204.501 392.809C204.075 394.252 203.434 395.813 202.577 397.491L201.516 396.993C201.889 396.257 202.234 395.508 202.549 394.746C202.872 393.987 203.11 393.347 203.264 392.825L203.304 392.689ZM199.866 398.157C201.083 398.459 202.29 398.712 203.486 398.918L203.317 399.952C202.52 399.84 201.648 399.677 200.7 399.463C199.76 399.251 198.905 399.032 198.134 398.804L196.468 398.312L196.716 397.264L198.529 397.799L198.733 397.86L199.845 394.096L200.967 394.427L199.866 398.157Z" fill="#161A3F"/>
<path d="M188.491 391.137C187.584 390.869 186.915 390.462 186.485 389.916C186.062 389.372 185.951 388.76 186.152 388.08C186.353 387.4 186.777 386.95 187.425 386.731C188.083 386.506 188.866 386.527 189.773 386.795L191.394 387.274C192.301 387.542 192.965 387.947 193.388 388.491C193.813 389.028 193.925 389.636 193.724 390.316C193.524 390.996 193.098 391.45 192.448 391.677C191.797 391.904 191.019 391.883 190.112 391.616L188.491 391.137ZM190.21 390.572C190.853 390.762 191.383 390.804 191.8 390.697C192.226 390.592 192.492 390.359 192.599 389.996C192.71 389.618 192.619 389.275 192.324 388.966C192.031 388.649 191.56 388.395 190.91 388.203L189.674 387.838C189.024 387.646 188.49 387.604 188.073 387.711C187.657 387.81 187.394 388.048 187.282 388.426C187.175 388.789 187.268 389.129 187.561 389.445C187.861 389.764 188.332 390.018 188.975 390.208L190.21 390.572ZM193.616 394.942L183.73 392.024L184.035 390.992L193.92 393.911L193.616 394.942ZM191.405 398.591L183.877 396.368L184.778 393.319L185.911 393.654L185.322 395.649L191.716 397.537L191.405 398.591Z" fill="#161A3F"/>
<path d="M182.684 386.972L184.317 387.454L184.012 388.486L182.38 388.004L181.657 390.453L180.523 390.118L182.2 384.438L183.334 384.773L182.684 386.972ZM179.796 389.115C178.297 388.935 176.829 388.633 175.393 388.209L173.59 387.677L175.013 382.859L176.158 383.197L175.04 386.983L175.89 387.234C176.472 387.406 177.119 387.568 177.829 387.72C178.55 387.868 179.259 387.986 179.955 388.077L179.796 389.115ZM180.228 395.293L173.494 393.305L174.726 389.133L181.459 391.122L180.228 395.293ZM180.031 391.784L175.553 390.462L174.917 392.616L179.395 393.938L180.031 391.784Z" fill="#161A3F"/>
<path d="M203.045 449.326L201.923 448.994L203.439 443.859L204.561 444.19L203.045 449.326ZM197.334 447.381C196.503 447.135 195.88 446.738 195.467 446.189C195.062 445.642 194.967 445.002 195.184 444.269L195.234 444.099C195.451 443.366 195.877 442.879 196.515 442.64C197.16 442.404 197.898 442.408 198.73 442.653C199.553 442.897 200.168 443.292 200.573 443.839C200.986 444.388 201.085 445.029 200.868 445.762L200.818 445.932C200.602 446.665 200.171 447.15 199.526 447.387C198.888 447.626 198.158 447.624 197.334 447.381ZM197.628 446.383C198.127 446.53 198.565 446.536 198.942 446.401C199.319 446.266 199.568 445.99 199.691 445.575L199.728 445.45C199.851 445.034 199.791 444.667 199.548 444.349C199.305 444.031 198.934 443.798 198.435 443.651C197.929 443.502 197.487 443.494 197.11 443.63C196.733 443.765 196.484 444.04 196.361 444.456L196.324 444.581C196.201 444.996 196.262 445.363 196.504 445.682C196.747 446 197.122 446.234 197.628 446.383ZM201.835 454.884L194.489 452.715L195.343 449.825L201.17 451.545L201.451 450.593L195.567 448.856L195.845 447.915L202.851 449.983L202.018 452.806L196.202 451.089L195.907 452.087L202.12 453.921L201.835 454.884Z" fill="#A2A3B2"/>
<path d="M188.045 450.27C187.417 450.084 186.894 449.77 186.475 449.325C186.063 448.883 185.796 448.328 185.673 447.659C185.552 446.983 185.613 446.232 185.857 445.409L186.382 443.629C186.623 442.813 186.977 442.157 187.443 441.662C187.91 441.167 188.436 440.846 189.022 440.699C189.618 440.546 190.229 440.562 190.856 440.747C191.484 440.932 192.006 441.251 192.423 441.703C192.842 442.147 193.113 442.704 193.236 443.372C193.359 444.041 193.3 444.784 193.059 445.6L192.534 447.38C192.29 448.204 191.934 448.867 191.466 449.369C190.999 449.864 190.469 450.184 189.876 450.33C189.282 450.475 188.672 450.455 188.045 450.27ZM188.346 449.249C188.996 449.441 189.598 449.352 190.151 448.981C190.706 448.603 191.124 447.938 191.405 446.985L191.894 445.33C192.175 444.378 192.184 443.596 191.921 442.984C191.66 442.365 191.205 441.959 190.555 441.767C189.905 441.576 189.302 441.669 188.747 442.047C188.194 442.418 187.777 443.079 187.496 444.032L187.007 445.687C186.726 446.639 186.716 447.425 186.976 448.044C187.24 448.656 187.696 449.058 188.346 449.249Z" fill="#A2A3B2"/>
<path d="M182.772 448.528L181.638 448.193L183.907 440.507L181.33 441.558L180.934 440.517L184.519 439.061L185.483 439.346L182.772 448.528Z" fill="#A2A3B2"/>
<path d="M171.709 440.603L171.94 439.821L174.865 440.685L176.294 435.844L177.428 436.179L175.667 442.142L174.534 441.807L174.634 441.467L171.709 440.603ZM170.929 437.735C170.098 437.49 169.457 437.157 169.006 436.736C168.557 436.308 168.402 435.86 168.54 435.391L168.56 435.323C168.701 434.847 169.07 434.557 169.667 434.454C170.274 434.346 170.997 434.416 171.836 434.663C172.668 434.909 173.305 435.241 173.748 435.659C174.202 436.072 174.358 436.517 174.217 436.993L174.197 437.061C174.059 437.53 173.685 437.822 173.076 437.938C172.468 438.046 171.753 437.979 170.929 437.735ZM169.624 435.686C169.564 435.89 169.674 436.1 169.956 436.314C170.248 436.524 170.658 436.706 171.187 436.863C171.708 437.017 172.145 437.084 172.496 437.064C172.856 437.039 173.067 436.925 173.127 436.721L173.137 436.687C173.195 436.49 173.078 436.287 172.787 436.078C172.505 435.863 172.103 435.679 171.582 435.525C171.053 435.369 170.608 435.303 170.247 435.328C169.896 435.348 169.692 435.456 169.634 435.652L169.624 435.686ZM169.834 438.94C169.628 438.888 169.339 438.807 168.969 438.697L167.201 438.175L167.403 437.323L169.308 437.885C169.988 438.086 170.8 438.297 171.746 438.519C172.701 438.735 173.593 438.912 174.423 439.051L174.284 439.897C173.357 439.754 172.244 439.529 170.947 439.22C170.684 439.914 170.494 440.405 170.377 440.691L169.298 440.298C169.406 440.042 169.585 439.59 169.834 438.94ZM168.831 443.34L168.607 444.099L174.955 445.974L174.691 446.869L167.243 444.67L167.989 442.142L173.952 443.903L174.163 443.189L168.143 441.411L168.404 440.527L175.523 442.629L174.794 445.1L168.831 443.34Z" fill="#A2A3B2"/>
<path d="M159.465 438.948C159.559 440.159 160.173 440.932 161.307 441.266C161.957 441.458 162.515 441.459 162.983 441.268C163.46 441.072 163.77 440.728 163.916 440.237C164.065 439.731 163.987 439.256 163.683 438.813C163.386 438.372 162.871 438.043 162.138 437.827L160.981 437.485L161.273 436.499L162.429 436.84C163.094 437.037 163.648 437.04 164.09 436.85C164.54 436.662 164.835 436.331 164.975 435.854C165.114 435.386 165.048 434.968 164.779 434.601C164.511 434.226 164.083 433.952 163.493 433.778C162.541 433.497 161.719 433.792 161.026 434.664L160.119 433.977C160.536 433.426 161.056 433.029 161.679 432.786C162.303 432.535 163.009 432.525 163.795 432.757C164.384 432.931 164.875 433.187 165.269 433.525C165.672 433.858 165.947 434.247 166.095 434.694C166.25 435.142 166.253 435.619 166.103 436.126C165.945 436.662 165.672 437.071 165.285 437.351C164.906 437.633 164.469 437.792 163.974 437.827C164.441 438.137 164.774 438.539 164.973 439.034C165.173 439.528 165.19 440.055 165.024 440.614C164.87 441.135 164.599 441.552 164.211 441.865C163.821 442.185 163.348 442.383 162.792 442.457C162.236 442.531 161.641 442.474 161.006 442.287C160.129 442.028 159.474 441.604 159.039 441.016C158.605 440.428 158.375 439.76 158.349 439.013L159.465 438.948Z" fill="#A2A3B2"/>
<path d="M203.265 428.765L205.77 429.504L205.489 430.457L199.333 428.639L199.614 427.687L202.12 428.427L202.464 427.259L203.609 427.597L203.265 428.765ZM208.322 429.124L207.415 432.196L209.048 432.678L208.743 433.71L207.111 433.228L205.966 437.105L204.832 436.77L207.189 428.789L208.322 429.124ZM204.207 433.085C204.024 433.705 203.635 434.12 203.039 434.33C202.452 434.535 201.781 434.526 201.025 434.303C200.27 434.08 199.698 433.722 199.309 433.229C198.923 432.729 198.821 432.169 199.004 431.549L199.054 431.379C199.239 430.752 199.624 430.34 200.208 430.142C200.802 429.94 201.481 429.951 202.244 430.176C203 430.4 203.568 430.756 203.949 431.247C204.34 431.732 204.443 432.288 204.257 432.915L204.207 433.085ZM200.122 431.855C200.026 432.18 200.09 432.478 200.313 432.749C200.537 433.021 200.868 433.221 201.307 433.351C201.737 433.478 202.121 433.488 202.456 433.382C202.801 433.27 203.021 433.056 203.114 432.738L203.151 432.613C203.245 432.296 203.176 432 202.945 431.727C202.721 431.455 202.393 431.256 201.963 431.129C201.532 431.002 201.145 430.99 200.802 431.094C200.467 431.201 200.252 431.412 200.158 431.73L200.122 431.855ZM199.331 434.739L200.465 435.074L199.909 436.956L206.065 438.773L205.76 439.805L198.471 437.653L199.331 434.739Z" fill="#161A3F"/>
<path d="M193.935 436.313L197.041 425.793L198.163 426.124L195.057 436.645L193.935 436.313ZM189.305 425.53L189.609 424.499L194.688 425.998L194.414 426.928C193.978 428.401 193.172 429.659 191.994 430.699C190.815 431.74 189.342 432.529 187.573 433.067L187.157 431.97C188.747 431.511 190.068 430.821 191.121 429.899C192.181 428.98 192.878 427.953 193.213 426.82L193.25 426.695L189.305 425.53Z" fill="#161A3F"/>
<path d="M183.396 424.156L185.028 424.638L184.724 425.669L183.091 425.187L182.368 427.636L181.235 427.301L182.911 421.622L184.045 421.956L183.396 424.156ZM180.65 422.186C180.326 423.282 179.64 424.09 178.591 424.61C177.544 425.123 176.179 425.389 174.497 425.41L174.364 424.274C175.697 424.265 176.802 424.086 177.678 423.737C178.553 423.387 179.114 422.908 179.359 422.298L175.539 421.17L175.844 420.139L180.82 421.608L180.65 422.186ZM180.939 432.476L174.205 430.488L175.437 426.317L182.171 428.305L180.939 432.476ZM180.743 428.968L176.265 427.645L175.629 429.799L180.107 431.122L180.743 428.968Z" fill="#161A3F"/>
<path d="M172.127 422.739L173.759 423.221L173.454 424.252L171.822 423.77L170.189 429.302L169.055 428.968L172.161 418.448L173.295 418.782L172.127 422.739ZM167.573 426.682L162.46 425.172L164.837 417.123L169.95 418.633L167.573 426.682ZM168.508 419.341L165.663 418.501L163.902 424.464L166.747 425.304L168.508 419.341Z" fill="#161A3F"/>
<path d="M562.717 316.763C562.717 358.31 529.037 391.99 487.49 391.99C445.944 391.99 412.264 358.31 412.264 316.763C412.264 275.217 445.944 241.537 487.49 241.537C529.037 241.537 562.717 275.217 562.717 316.763Z" fill="url(#paint1_radial_5578_2830)"/>
<path d="M697.532 9.77451C697.532 51.3211 663.852 85.0013 622.305 85.0013C580.758 85.0013 547.078 51.3211 547.078 9.77451C547.078 -31.7721 580.758 -65.4523 622.305 -65.4523C663.852 -65.4523 697.532 -31.7721 697.532 9.77451Z" fill="url(#paint2_radial_5578_2830)"/>
<path d="M150.164 143.792C150.164 203.853 101.508 252.542 41.4875 252.542C-18.5331 252.542 -67.1895 203.853 -67.1895 143.792C-67.1895 83.7318 -18.5331 35.0431 41.4875 35.0431C101.508 35.0431 150.164 83.7318 150.164 143.792Z" fill="url(#paint3_radial_5578_2830)"/>
<g filter="url(#filter1_d_5578_2830)">
<rect x="102.67" y="-49.2341" width="512.903" height="60.8186" fill="#8E59FF"/>
</g>
<path d="M480.2 143.637V144.946H487.04V146.929H471.031V144.946H477.871V143.637H472.814V141.708H475.233V139.071H472.814V137.16H485.275V139.071H482.837V141.708H485.275V143.637H480.2ZM480.582 139.071H477.489V141.708H480.582V139.071ZM485.184 153.824H472.905V148.148H485.184V153.824ZM482.856 150.022H475.215V151.932H482.856V150.022Z" fill="#8E59FF"/>
<path d="M464.097 142.745H462.424V146.293H460.295V137.015H462.424V140.708H464.097V136.851H466.299V147.857H464.097V142.745ZM459.295 145.838C458.664 145.971 457.985 146.074 457.257 146.147C456.542 146.208 455.675 146.238 454.656 146.238H451.764V140.872H456.366V139.544H451.764V137.561H458.476V142.818H453.892V144.237H455.075C456.384 144.237 457.712 144.128 459.058 143.909L459.295 145.838ZM467.154 151.841L466.299 153.915L459.659 151.368C458.397 152.459 456.542 153.339 454.092 154.006L453.31 151.932C457.191 150.78 459.131 149.385 459.131 147.748V147.111H461.514V147.748C461.514 148.354 461.381 148.954 461.114 149.549L467.154 151.841Z" fill="#8E59FF"/>
<path d="M443.246 141.017H445.683V142.854H433.222V141.017H435.642V138.907H433.222V137.07H445.683V138.907H443.246V141.017ZM440.99 138.907H437.897V141.017H440.99V138.907ZM431.439 145.692V143.855H447.448V145.692H431.439ZM445.592 151.113H435.623V152.077H446.047V153.915H433.313V149.367H443.264V148.439H433.222V146.656H445.592V151.113Z" fill="#8E59FF"/>
<path d="M419.318 153.824H416.99V136.833H419.318V153.824ZM405.42 151.477V143.618H411.496V140.089H405.42V137.997H413.824V145.656H407.73V149.385H409.349C411.302 149.385 413.297 149.221 415.334 148.894L415.625 150.895C413.624 151.283 411.393 151.477 408.931 151.477H405.42Z" fill="#8E59FF"/>
<path d="M398.743 136.833V141.727H401.017V143.855H398.743V149.84H396.415V136.833H398.743ZM391.576 143.928C391.867 142.084 392.018 140.641 392.031 139.598H385.536V137.633H394.304V138.488C394.304 140.38 394.135 142.284 393.795 144.201L391.576 143.928ZM395.432 147.075C394.183 147.257 392.813 147.396 391.321 147.493C389.829 147.59 388.465 147.639 387.228 147.639H384.645L384.518 145.51H387.446H387.61V141.854H389.939V145.438C391.758 145.353 393.504 145.213 395.178 145.019L395.432 147.075ZM387.392 149.039H389.702V151.714H399.544V153.824H387.392V149.039Z" fill="#8E59FF"/>
<path d="M372.665 153.824H370.337V136.833H372.665V153.824ZM358.949 151.131V137.997H367.608V140.126H361.296V149.003H362.569C364.425 149.003 366.468 148.833 368.7 148.494L368.973 150.549C366.668 150.937 364.407 151.131 362.187 151.131H358.949Z" fill="#8E59FF"/>
<path d="M350.542 143.145V136.833H352.871V153.824H350.542V145.274H348.105V143.145H350.542ZM342.811 149.385C344.703 149.385 346.643 149.227 348.632 148.912L348.905 150.913C347.001 151.289 344.836 151.477 342.411 151.477H338.973V137.997H347.486V140.089H341.283V143.618H347.322V145.656H341.283V149.385H342.811Z" fill="#8E59FF"/>
<path d="M325.998 143.327C324.749 144.904 322.778 146.293 320.086 147.493L319.013 145.492C321.232 144.461 322.827 143.406 323.797 142.327C324.78 141.235 325.271 140.089 325.271 138.889V137.615H327.599V138.889C327.599 139.75 327.448 140.574 327.144 141.363L333.675 145.565L332.402 147.493L325.998 143.327ZM318.34 152.641V150.513H334.348V152.641H318.34Z" fill="#8E59FF"/>
<path d="M306.222 149.403H303.893V136.833H306.222V149.403ZM296.744 146.856C295.847 146.856 295.046 146.687 294.343 146.347C293.639 145.995 293.082 145.474 292.669 144.783C292.257 144.079 292.051 143.212 292.051 142.181V141.908C292.051 140.878 292.257 140.01 292.669 139.307C293.082 138.592 293.639 138.064 294.343 137.724C295.046 137.373 295.847 137.197 296.744 137.197C297.629 137.197 298.424 137.373 299.127 137.724C299.831 138.064 300.382 138.585 300.783 139.289C301.195 139.992 301.401 140.865 301.401 141.908V142.181C301.401 143.212 301.195 144.079 300.783 144.783C300.382 145.474 299.831 145.995 299.127 146.347C298.424 146.687 297.629 146.856 296.744 146.856ZM296.744 144.819C297.423 144.819 297.981 144.595 298.418 144.146C298.866 143.685 299.091 143.024 299.091 142.163V141.908C299.091 141.035 298.866 140.374 298.418 139.926C297.981 139.465 297.423 139.234 296.744 139.234C296.053 139.234 295.483 139.465 295.034 139.926C294.598 140.374 294.379 141.035 294.379 141.908V142.163C294.379 143.036 294.598 143.697 295.034 144.146C295.483 144.595 296.053 144.819 296.744 144.819ZM306.859 153.824H294.689V148.257H297.017V151.714H306.859V153.824Z" fill="#8E59FF"/>
<path d="M284.094 140.526V136.851H286.423V146.365H284.094V142.509H281.111V140.526H284.094ZM276.872 143.455C276.011 144.583 274.689 145.601 272.907 146.511L271.797 144.673C273.216 143.909 274.253 143.127 274.908 142.327C275.562 141.526 275.914 140.623 275.963 139.616H272.47V137.561H281.729V139.616H278.218C278.206 140.271 278.091 140.938 277.873 141.617L282.366 144.364L281.22 146.256L276.872 143.455ZM284.094 149.385H274.689V147.293H286.423V154.006H284.094V149.385Z" fill="#8E59FF"/>
<path d="M258.369 142.436C256.913 142.436 255.767 142.212 254.931 141.763C254.094 141.302 253.675 140.599 253.675 139.653C253.675 138.707 254.094 138.009 254.931 137.561C255.767 137.112 256.913 136.888 258.369 136.888H261.425C262.88 136.888 264.026 137.112 264.863 137.561C265.712 138.009 266.136 138.707 266.136 139.653C266.136 140.599 265.712 141.302 264.863 141.763C264.026 142.212 262.88 142.436 261.425 142.436H258.369ZM258.842 138.707C257.896 138.707 257.18 138.786 256.695 138.943C256.222 139.089 255.986 139.331 255.986 139.671C255.986 140.326 256.938 140.653 258.842 140.653H260.97C262.862 140.653 263.808 140.326 263.808 139.671C263.808 139.331 263.565 139.089 263.08 138.943C262.607 138.786 261.904 138.707 260.97 138.707H258.842ZM267.901 143.418V145.256H264.008V146.474H266.045V151.04H256.077V152.059H266.5V153.915H253.766V149.258H263.717V148.294H253.675V146.474H255.822V145.256H251.893V143.418H267.901ZM258.078 146.474H261.752V145.256H258.078V146.474Z" fill="#8E59FF"/>
<path d="M241.262 138.761H246.938V140.708H233.24V138.761H238.934V136.997H241.262V138.761ZM242.263 141.781C243.027 141.781 243.7 141.921 244.282 142.199C244.864 142.466 245.313 142.842 245.628 143.327C245.943 143.812 246.101 144.364 246.101 144.983C246.101 145.589 245.943 146.135 245.628 146.62C245.313 147.093 244.864 147.469 244.282 147.748C243.7 148.015 243.027 148.148 242.263 148.148H237.897C237.133 148.148 236.46 148.015 235.878 147.748C235.295 147.469 234.847 147.093 234.531 146.62C234.216 146.135 234.058 145.589 234.058 144.983C234.058 144.364 234.216 143.812 234.531 143.327C234.847 142.842 235.295 142.466 235.878 142.199C236.46 141.921 237.133 141.781 237.897 141.781H242.263ZM243.773 144.983C243.773 144.607 243.609 144.31 243.281 144.091C242.954 143.861 242.469 143.746 241.826 143.746H238.333C237.691 143.746 237.205 143.861 236.878 144.091C236.563 144.31 236.405 144.607 236.405 144.983C236.405 145.347 236.563 145.644 236.878 145.874C237.205 146.092 237.691 146.202 238.333 146.202H241.826C242.469 146.202 242.954 146.092 243.281 145.874C243.609 145.644 243.773 145.347 243.773 144.983ZM244.064 148.803V150.513H248.102V152.623H232.094V150.513H236.132V148.803H238.406V150.513H241.79V148.803H244.064Z" fill="#8E59FF"/>
<path d="M480.129 172.396C479.329 172.396 478.627 172.245 478.022 171.942C477.427 171.63 476.968 171.206 476.646 170.669C476.324 170.133 476.163 169.528 476.163 168.855C476.163 168.182 476.324 167.582 476.646 167.055C476.968 166.519 477.427 166.099 478.022 165.797C478.627 165.485 479.329 165.329 480.129 165.329H482.075C482.875 165.329 483.572 165.485 484.167 165.797C484.772 166.099 485.235 166.519 485.557 167.055C485.889 167.582 486.055 168.182 486.055 168.855C486.055 169.528 485.889 170.133 485.557 170.669C485.235 171.206 484.772 171.63 484.167 171.942C483.572 172.245 482.875 172.396 482.075 172.396H480.129ZM480.304 166.28C479.661 166.28 479.105 166.392 478.636 166.616C478.168 166.841 477.812 167.148 477.568 167.538C477.324 167.928 477.202 168.367 477.202 168.855C477.202 169.352 477.324 169.801 477.568 170.201C477.812 170.591 478.168 170.899 478.636 171.123C479.105 171.347 479.661 171.459 480.304 171.459H481.899C482.543 171.459 483.099 171.347 483.567 171.123C484.036 170.899 484.392 170.591 484.635 170.201C484.879 169.801 485.001 169.352 485.001 168.855C485.001 168.367 484.879 167.928 484.635 167.538C484.392 167.148 484.036 166.841 483.567 166.616C483.099 166.392 482.543 166.28 481.899 166.28H480.304ZM484.021 173.215V176.01H487.416V176.961H474.773V176.01H478.183V173.215H479.222V176.01H482.982V173.215H484.021Z" fill="#8E59FF"/>
<path d="M471.302 178.059V164.553H472.327V178.059H471.302ZM466.006 169.411H468.391V164.773H469.4V177.81H468.391V170.377H466.006V169.411ZM464.469 167.114C464.469 168.235 464.357 169.328 464.133 170.391L467.323 175.41L466.474 176.025L463.752 171.737C463.255 173.269 462.45 174.752 461.338 176.186L460.562 175.513C461.528 174.264 462.25 172.962 462.728 171.606C463.206 170.25 463.445 168.752 463.445 167.114V165.387H464.469V167.114Z" fill="#8E59FF"/>
<path d="M457.382 169.835H459.635V170.801H457.382V178.059H456.343V164.553H457.382V169.835ZM450.197 164.568H451.236V166.704H454.631V167.655H446.803V166.704H450.197V164.568ZM450.739 169.045C451.344 169.045 451.89 169.177 452.378 169.44C452.875 169.694 453.265 170.06 453.548 170.538C453.841 171.016 453.987 171.572 453.987 172.206V172.981C453.987 173.615 453.841 174.176 453.548 174.664C453.265 175.142 452.875 175.513 452.378 175.776C451.89 176.03 451.344 176.156 450.739 176.156C450.124 176.156 449.568 176.03 449.071 175.776C448.573 175.513 448.178 175.142 447.886 174.664C447.603 174.176 447.461 173.615 447.461 172.981V172.206C447.461 171.572 447.603 171.016 447.886 170.538C448.178 170.06 448.573 169.694 449.071 169.44C449.568 169.177 450.124 169.045 450.739 169.045ZM452.948 172.25C452.948 171.567 452.738 171.025 452.319 170.625C451.9 170.216 451.373 170.011 450.739 170.011C450.095 170.011 449.563 170.216 449.144 170.625C448.724 171.025 448.515 171.567 448.515 172.25V172.937C448.515 173.63 448.724 174.181 449.144 174.591C449.563 175 450.095 175.205 450.739 175.205C451.373 175.205 451.9 175 452.319 174.591C452.738 174.171 452.948 173.62 452.948 172.937V172.25Z" fill="#8E59FF"/>
<path d="M444.124 178.059H443.085V164.553H444.124V178.059ZM433.516 176.098V170.318H438.754V166.587H433.516V165.636H439.807V171.269H434.554V175.147H435.974C436.783 175.147 437.681 175.108 438.666 175.03C439.661 174.942 440.593 174.83 441.461 174.693L441.593 175.6C440.793 175.756 439.876 175.878 438.842 175.966C437.808 176.054 436.793 176.098 435.798 176.098H433.516Z" fill="#8E59FF"/>
<path d="M429.475 164.553V168.84H431.582V169.821H429.475V175.015H428.436V164.553H429.475ZM424.968 166.221H419.423V165.299H426.007V166.002C426.007 167.26 425.846 168.752 425.524 170.479L424.515 170.318C424.661 169.606 424.773 168.889 424.851 168.167C424.929 167.436 424.968 166.821 424.968 166.324V166.221ZM427.266 172.411C426.31 172.557 425.237 172.669 424.047 172.747C422.856 172.825 421.759 172.864 420.754 172.864H418.53L418.486 171.913H420.813C421.144 171.913 421.403 171.908 421.588 171.898V168.416H422.642V171.869C424.29 171.781 425.793 171.655 427.149 171.489L427.266 172.411ZM420.945 174.518H421.983V177.093H430.251V178.059H420.945V174.518Z" fill="#8E59FF"/>
<path d="M411.308 169.411V164.553H412.361V178.059H411.308V170.377H407.84V169.411H411.308ZM405.733 167.07C405.733 168.24 405.587 169.352 405.294 170.406L409.493 175.352L408.718 176.039L404.914 171.547C404.27 173.157 403.197 174.703 401.694 176.186L400.963 175.469C402.231 174.22 403.172 172.928 403.787 171.591C404.401 170.245 404.709 168.738 404.709 167.07V165.387H405.733V167.07Z" fill="#8E59FF"/>
<path d="M397.508 178.059V164.553H398.532V178.059H397.508ZM394.596 169.982V164.773H395.606V177.81H394.596V170.933H392.767V171.781C392.767 173.303 392.514 174.43 392.006 175.161C391.499 175.893 390.831 176.259 390.002 176.259C389.153 176.259 388.475 175.893 387.968 175.161C387.461 174.43 387.207 173.303 387.207 171.781V169.762C387.207 168.24 387.461 167.114 387.968 166.382C388.475 165.65 389.153 165.285 390.002 165.285C390.831 165.285 391.499 165.65 392.006 166.382C392.514 167.114 392.767 168.24 392.767 169.762V169.982H394.596ZM391.758 169.762C391.758 168.562 391.597 167.679 391.275 167.114C390.963 166.538 390.533 166.25 389.987 166.25C389.441 166.25 389.007 166.538 388.685 167.114C388.373 167.679 388.217 168.562 388.217 169.762V171.767C388.217 172.967 388.373 173.854 388.685 174.43C389.007 175.005 389.441 175.293 389.987 175.293C390.533 175.293 390.963 175.005 391.275 174.43C391.597 173.854 391.758 172.967 391.758 171.767V169.762Z" fill="#8E59FF"/>
<path d="M382.243 169.674C382.379 168.991 382.486 168.304 382.564 167.611C382.652 166.909 382.696 166.367 382.696 165.987H374.619V165.036H383.735V165.753C383.735 166.319 383.691 166.963 383.603 167.684C383.525 168.396 383.413 169.109 383.267 169.821L382.243 169.674ZM379.272 167.801V170.699H385.564V171.635H372.922V170.699H378.233V167.801H379.272ZM379.843 173.61C379.843 174.108 379.711 174.576 379.448 175.015L384.628 177.225L384.233 178.132L378.848 175.791C377.921 176.737 376.385 177.542 374.239 178.205L373.888 177.298C375.38 176.829 376.57 176.283 377.458 175.659C378.346 175.035 378.789 174.352 378.789 173.61V172.937H379.843V173.61Z" fill="#8E59FF"/>
<path d="M359.703 166.075H363.098V166.982H355.27V166.075H358.664V164.377H359.703V166.075ZM365.849 164.553V168.694H368.102V169.674H365.849V174.942H364.81V164.553H365.849ZM362.469 170.669C362.469 171.45 362.161 172.069 361.547 172.528C360.932 172.976 360.152 173.201 359.206 173.201C358.591 173.201 358.035 173.103 357.538 172.908C357.04 172.703 356.645 172.411 356.352 172.03C356.069 171.65 355.928 171.196 355.928 170.669V170.421C355.928 169.64 356.235 169.03 356.85 168.592C357.474 168.143 358.259 167.918 359.206 167.918C360.152 167.918 360.932 168.143 361.547 168.592C362.161 169.03 362.469 169.64 362.469 170.421V170.669ZM356.967 170.655C356.967 171.142 357.177 171.537 357.596 171.84C358.025 172.132 358.562 172.279 359.206 172.279C359.84 172.279 360.371 172.132 360.8 171.84C361.23 171.537 361.444 171.142 361.444 170.655V170.45C361.444 169.962 361.23 169.572 360.8 169.279C360.371 168.977 359.84 168.826 359.206 168.826C358.562 168.826 358.025 168.977 357.596 169.279C357.177 169.572 356.967 169.962 356.967 170.45V170.655ZM357.45 174.415H358.503V177.093H366.624V178.044H357.45V174.415Z" fill="#8E59FF"/>
<path d="M342.839 169.031C341.629 169.031 340.693 168.85 340.029 168.489C339.366 168.128 339.034 167.577 339.034 166.836C339.034 166.094 339.366 165.548 340.029 165.197C340.693 164.846 341.629 164.67 342.839 164.67H344.741C345.96 164.67 346.902 164.846 347.565 165.197C348.228 165.548 348.56 166.094 348.56 166.836C348.56 167.577 348.223 168.128 347.55 168.489C346.887 168.85 345.951 169.031 344.741 169.031H342.839ZM344.58 168.138C345.536 168.138 346.263 168.031 346.76 167.816C347.258 167.592 347.506 167.265 347.506 166.836C347.506 165.987 346.531 165.563 344.58 165.563H343.014C341.054 165.563 340.073 165.987 340.073 166.836C340.073 167.704 341.054 168.138 343.014 168.138H344.58ZM350.111 171.079H337.469V170.186H350.111V171.079ZM348.853 178.132H339.108V174.796H347.433V173.274H339.034V172.396H348.487V175.674H340.146V177.239H348.853V178.132Z" fill="#8E59FF"/>
<path d="M330.297 169.543V171.02H336.091V171.942H323.449V171.02H329.258V169.543H325.22V164.89H334.189V165.797H326.259V168.621H334.336V169.543H330.297ZM331.248 173.391C332.321 173.391 333.15 173.615 333.736 174.064C334.321 174.503 334.614 175.078 334.614 175.791C334.614 176.512 334.321 177.093 333.736 177.532C333.15 177.98 332.321 178.205 331.248 178.205H328.292C327.219 178.205 326.39 177.98 325.805 177.532C325.229 177.093 324.942 176.512 324.942 175.791C324.942 175.078 325.234 174.503 325.82 174.064C326.405 173.615 327.229 173.391 328.292 173.391H331.248ZM331.014 177.283C331.853 177.283 332.487 177.146 332.916 176.873C333.345 176.61 333.56 176.249 333.56 175.791C333.56 175.332 333.345 174.976 332.916 174.722C332.487 174.459 331.853 174.327 331.014 174.327H328.527C327.688 174.327 327.054 174.459 326.624 174.722C326.195 174.976 325.981 175.332 325.981 175.791C325.981 176.249 326.195 176.61 326.624 176.873C327.054 177.146 327.688 177.283 328.527 177.283H331.014Z" fill="#8E59FF"/>
<path d="M313.876 165.665H317.226V166.499H309.457V165.665H312.822V164.377H313.876V165.665ZM320.211 164.553V168.416H322.318V169.382H320.211V172.147H319.173V164.553H320.211ZM318.002 171.737C317.017 171.864 315.924 171.972 314.724 172.059C313.534 172.137 312.456 172.176 311.491 172.176H309.267L309.223 171.313H311.549C311.783 171.313 312.232 171.303 312.895 171.284V170.391C312.047 170.342 311.369 170.186 310.861 169.923C310.364 169.65 310.115 169.274 310.115 168.796V168.679C310.115 168.153 310.413 167.753 311.008 167.479C311.613 167.197 312.398 167.055 313.364 167.055C314.32 167.055 315.095 167.197 315.69 167.479C316.285 167.753 316.583 168.153 316.583 168.679V168.796C316.583 169.265 316.344 169.635 315.866 169.908C315.388 170.182 314.749 170.342 313.949 170.391V171.24C315.354 171.181 316.67 171.069 317.9 170.903L318.002 171.737ZM311.139 168.782C311.139 169.026 311.349 169.226 311.769 169.382C312.188 169.528 312.72 169.601 313.364 169.601C313.998 169.601 314.519 169.528 314.929 169.382C315.349 169.226 315.558 169.026 315.558 168.782V168.709C315.558 168.465 315.349 168.265 314.929 168.109C314.51 167.943 313.988 167.86 313.364 167.86C312.729 167.86 312.198 167.943 311.769 168.109C311.349 168.265 311.139 168.465 311.139 168.709V168.782ZM320.211 176.01H312.705V177.254H320.782V178.117H311.681V175.161H319.187V173.962H311.608V173.113H320.211V176.01Z" fill="#8E59FF"/>
<path d="M303.116 178.059H302.077V164.553H303.116V178.059ZM292.654 175.805V165.636H299.151V166.602H293.693V174.854H294.952C295.751 174.854 296.644 174.815 297.629 174.737C298.624 174.649 299.57 174.537 300.468 174.4L300.585 175.322C299.746 175.469 298.81 175.586 297.776 175.673C296.742 175.761 295.742 175.805 294.776 175.805H292.654Z" fill="#8E59FF"/>
<path d="M288.056 169.982V164.553H289.095V178.059H288.056V170.933H285.568V169.982H288.056ZM280.93 175.147C281.759 175.147 282.661 175.108 283.637 175.03C284.622 174.942 285.529 174.83 286.358 174.693L286.49 175.615C285.71 175.761 284.803 175.878 283.769 175.966C282.744 176.054 281.74 176.098 280.754 176.098H278.486V165.636H284.954V166.587H279.525V170.318H284.793V171.269H279.525V175.147H280.93Z" fill="#8E59FF"/>
<path d="M269.701 169.25C268.794 170.606 267.194 171.83 264.902 172.923L264.419 172.03C266.155 171.191 267.438 170.313 268.267 169.396C269.106 168.47 269.526 167.475 269.526 166.411V165.329H270.565V166.411C270.565 167.075 270.433 167.723 270.169 168.357L275.539 172.074L274.954 172.923L269.701 169.25ZM263.658 176.961V176.01H276.3V176.961H263.658Z" fill="#8E59FF"/>
<path d="M247.706 164.89H256.676V165.826H248.745V169.221H256.822V170.172H247.706V164.89ZM258.578 172.849H245.936V171.884H258.578V172.849ZM257.173 178.058H247.706V174.137H248.745V177.093H257.173V178.058Z" fill="#8E59FF"/>
<path d="M238.762 172.469V176.01H244.556V176.976H231.914V176.01H237.723V172.469H233.553V165.548H242.932V172.469H238.762ZM241.879 166.499H234.592V171.533H241.879V166.499Z" fill="#8E59FF"/>
<g filter="url(#filter2_bd_5578_2830)">
<rect x="133.367" y="208.521" width="459.759" height="38.6632" rx="19.3316" fill="white" fill-opacity="0.4" shape-rendering="crispEdges"/>
</g>
<path d="M596.311 59.805V104.26H593.85V59.805H596.311Z" fill="black"/>
<path d="M553.26 90.4705C553.335 92.8668 553.934 95.001 555.059 96.8732C556.184 98.7453 557.777 100.206 559.839 101.254C561.9 102.34 564.356 102.883 567.205 102.883C570.054 102.883 572.528 102.321 574.627 101.198C576.727 100.075 578.339 98.4832 579.463 96.4239C580.588 94.3645 581.15 91.9869 581.15 89.291V59.805H583.568V89.291C583.568 92.4737 582.893 95.2631 581.544 97.6595C580.232 100.018 578.339 101.853 575.864 103.164C573.39 104.474 570.504 105.129 567.205 105.129C563.943 105.129 561.076 104.493 558.602 103.22C556.165 101.947 554.272 100.206 552.922 97.9964C551.61 95.7873 550.917 93.2787 550.842 90.4705H553.26Z" fill="black"/>
<path d="M538.955 91.3177H514.133L508.605 104.26H505.953L525.077 59.805H527.954L547.078 104.26H544.483L538.955 91.3177ZM537.939 89.0668L526.544 62.4498L515.148 89.0668H537.939Z" fill="black"/>
<path d="M480.473 58.7914C484.109 58.7914 487.446 59.4662 490.483 60.8158C493.557 62.128 496.106 63.9463 498.13 66.2707C500.155 68.5951 501.523 71.2006 502.235 74.0874H499.817C499.218 71.5755 497.98 69.3261 496.106 67.3391C494.269 65.3147 491.982 63.7401 489.245 62.6154C486.546 61.4906 483.641 60.9283 480.529 60.9283C476.555 60.9283 473.013 61.8281 469.901 63.6276C466.79 65.4271 464.353 67.939 462.591 71.1631C460.866 74.3498 460.004 77.9489 460.004 81.9603C460.004 86.0093 460.866 89.6271 462.591 92.8138C464.353 96.0004 466.79 98.4935 469.901 100.293C473.05 102.093 476.649 102.992 480.698 102.992C484.334 102.992 487.633 102.205 490.595 100.63C493.557 99.0934 495.9 96.9189 497.624 94.1072C499.386 91.2954 500.323 88.0712 500.436 84.4347H479.236V82.2415H502.91V83.7036C502.91 87.865 501.917 91.5766 499.93 94.8382C497.98 98.0999 495.281 100.63 491.832 102.43C488.421 104.23 484.634 105.129 480.473 105.129C476.049 105.129 472.094 104.136 468.608 102.149C465.159 100.162 462.46 97.4063 460.51 93.8822C458.561 90.3581 457.586 86.3842 457.586 81.9603C457.586 77.5365 458.561 73.5625 460.51 70.0384C462.46 66.5143 465.159 63.7588 468.608 61.7718C472.094 59.7848 476.049 58.7914 480.473 58.7914Z" fill="black"/>
<path d="M439.298 94.9928C440.905 94.9928 442.231 95.5387 443.276 96.6306C444.322 97.6848 444.845 99.0213 444.845 100.64C444.845 102.259 444.322 103.596 443.276 104.65C442.231 105.742 440.905 106.288 439.298 106.288C437.692 106.288 436.347 105.742 435.264 104.65C434.218 103.596 433.695 102.259 433.695 100.64C433.695 99.0213 434.218 97.6848 435.264 96.6306C436.347 95.5387 437.692 94.9928 439.298 94.9928Z" fill="#8E59FF"/>
<path d="M434.566 69.0178H419.637V105.853H409.384V69.0178H394.455V59.9498H434.566V69.0178Z" fill="#8E59FF"/>
<path d="M369.774 107.012C365.118 107.012 360.912 105.96 357.157 103.857C353.44 101.792 350.511 98.9375 348.371 95.2947C346.268 91.6143 345.217 87.4833 345.217 82.9016C345.217 78.3199 346.268 74.2076 348.371 70.5648C350.511 66.8844 353.44 64.0115 357.157 61.946C360.912 59.8429 365.118 58.7914 369.774 58.7914C373.866 58.7914 377.527 59.5424 380.757 61.0446C384.023 62.5468 386.67 64.6124 388.698 67.2412C390.726 69.87 392.059 72.8181 392.697 76.0854H382.334C381.77 73.8321 380.362 71.9543 378.109 70.4521C375.894 68.9499 373.191 68.1988 369.999 68.1988C367.258 68.1988 364.78 68.8373 362.564 70.1141C360.349 71.3535 358.603 73.0998 357.326 75.353C356.087 77.5688 355.468 80.085 355.468 82.9016C355.468 85.6806 356.087 88.1968 357.326 90.4501C358.603 92.7034 360.349 94.4685 362.564 95.7453C364.78 96.9846 367.258 97.6043 369.999 97.6043C372.102 97.6043 374.073 97.1912 375.913 96.365C377.79 95.5388 379.33 94.4685 380.531 93.154C381.77 91.8396 382.521 90.4876 382.784 89.0981H393.148C392.659 92.2152 391.364 95.1444 389.261 97.886C387.159 100.627 384.399 102.824 380.982 104.477C377.602 106.167 373.866 107.012 369.774 107.012Z" fill="#8E59FF"/>
<path d="M306.414 59.9498H340.516V68.8489H316.656V78.1985H338.547V87.0976H316.656V96.9542H341.023V105.853H306.414V59.9498Z" fill="#8E59FF"/>
<path d="M272.918 90.6105C272.918 91.7753 273.218 92.9213 273.818 94.0486C274.456 95.1382 275.356 96.04 276.519 96.7539C277.681 97.4303 279.069 97.7684 280.682 97.7684C283.195 97.7684 285.164 96.9606 286.59 95.3449C288.053 93.7292 288.784 91.5874 288.784 88.9197V59.9498H299.024V88.9197C299.024 92.5268 298.255 95.7019 296.717 98.4448C295.217 101.188 293.079 103.292 290.303 104.757C287.528 106.26 284.32 107.012 280.682 107.012C277.081 107.012 273.93 106.279 271.23 104.814C268.529 103.386 266.429 101.432 264.928 98.952C263.465 96.4346 262.715 93.654 262.678 90.6105H272.918Z" fill="#8E59FF"/>
<path d="M235.168 107.012C230.478 107.012 226.239 105.96 222.45 103.857C218.698 101.792 215.753 98.9375 213.614 95.2947C211.476 91.6143 210.406 87.4833 210.406 82.9016C210.406 78.3199 211.476 74.2076 213.614 70.5648C215.753 66.8844 218.698 64.0115 222.45 61.946C226.239 59.8429 230.478 58.7914 235.168 58.7914C239.858 58.7914 244.079 59.8429 247.83 61.946C251.62 64.0115 254.584 66.8844 256.722 70.5648C258.861 74.2076 259.93 78.3199 259.93 82.9016C259.93 87.4833 258.861 91.6143 256.722 95.2947C254.584 98.9375 251.62 101.792 247.83 103.857C244.079 105.96 239.858 107.012 235.168 107.012ZM235.168 97.7733C237.907 97.7733 240.383 97.1349 242.597 95.858C244.81 94.5811 246.536 92.816 247.774 90.5628C249.05 88.2719 249.688 85.7182 249.688 82.9016C249.688 80.0474 249.05 77.4937 247.774 75.2404C246.536 72.9871 244.81 71.222 242.597 69.9451C240.383 68.6683 237.907 68.0298 235.168 68.0298C232.429 68.0298 229.953 68.6683 227.74 69.9451C225.526 71.222 223.781 72.9871 222.506 75.2404C221.268 77.4937 220.649 80.0474 220.649 82.9016C220.649 85.7182 221.268 88.2719 222.506 90.5628C223.781 92.816 225.526 94.5811 227.74 95.858C229.953 97.1349 232.429 97.7733 235.168 97.7733Z" fill="#8E59FF"/>
<path d="M196.237 105.853L187.361 91.3782H179.216V105.853H168.992V59.9498H187.418C191.237 59.9498 194.533 60.6069 197.304 61.9211C200.076 63.1977 202.191 65.0189 203.652 67.3844C205.113 69.75 205.843 72.5099 205.843 75.664C205.843 78.8181 205.113 81.5779 203.652 83.9435C202.229 86.2715 200.169 88.0739 197.473 89.3506L208.09 105.853H196.237ZM179.216 82.3101H186.968C189.702 82.3101 191.818 81.7469 193.316 80.6204C194.851 79.4564 195.619 77.8043 195.619 75.664C195.619 73.5237 194.851 71.8903 193.316 70.7638C191.818 69.5998 189.702 69.0178 186.968 69.0178H179.216V82.3101Z" fill="#8E59FF"/>
<path d="M126.852 59.9498H144.52C148.472 59.9498 151.859 60.6444 154.681 62.0337C157.541 63.423 159.724 65.3756 161.23 67.8914C162.735 70.4071 163.488 73.3547 163.488 76.7341C163.488 80.1511 162.735 83.1362 161.23 85.6895C159.724 88.2053 157.541 90.1579 154.681 91.5472C151.859 92.9365 148.472 93.6311 144.52 93.6311H137.125V105.853H126.852V59.9498ZM144.069 84.5631C146.967 84.5631 149.206 83.8872 150.786 82.5354C152.405 81.1837 153.214 79.2499 153.214 76.7341C153.214 74.2184 152.405 72.3034 150.786 70.9891C149.206 69.6749 146.967 69.0178 144.069 69.0178H137.125V84.5631H144.069Z" fill="#8E59FF"/>
<path d="M179.71 219.008V222.604H182.379V224.29H179.71V228.387H177.856V219.008H179.71ZM176.318 227.219C175.267 227.404 174.131 227.546 172.907 227.645C171.696 227.744 170.498 227.793 169.312 227.793H166.346V219.823H174.705V221.473H168.218V226.162H169.645C171.523 226.162 173.673 225.983 176.095 225.625L176.318 227.219ZM176.04 229.295C176.855 229.295 177.572 229.449 178.19 229.758C178.808 230.055 179.283 230.475 179.617 231.019C179.951 231.55 180.118 232.155 180.118 232.835C180.118 233.527 179.951 234.139 179.617 234.67C179.283 235.214 178.808 235.634 178.19 235.93C177.572 236.239 176.855 236.394 176.04 236.394H172.407C171.604 236.394 170.893 236.239 170.275 235.93C169.657 235.634 169.176 235.214 168.83 234.67C168.496 234.139 168.329 233.527 168.329 232.835C168.329 232.155 168.496 231.55 168.83 231.019C169.176 230.475 169.657 230.055 170.275 229.758C170.893 229.449 171.604 229.295 172.407 229.295H176.04ZM175.743 234.726C176.559 234.726 177.183 234.553 177.615 234.207C178.048 233.861 178.264 233.403 178.264 232.835C178.264 232.267 178.048 231.809 177.615 231.463C177.183 231.117 176.559 230.944 175.743 230.944H172.703C171.888 230.944 171.264 231.117 170.831 231.463C170.399 231.809 170.183 232.267 170.183 232.835C170.183 233.403 170.399 233.861 170.831 234.207C171.264 234.553 171.888 234.726 172.703 234.726H175.743ZM199.009 219.008H200.844V231.89H199.009V219.008ZM191.428 225.477C190.563 226.86 189.192 228.158 187.314 229.369L186.294 227.923C187.864 226.91 189.013 225.847 189.742 224.735C190.483 223.611 190.854 222.363 190.854 220.991V219.656H192.67V220.991C192.67 222.029 192.516 222.987 192.207 223.864L197.211 227.608L196.173 229.017L191.428 225.477ZM191.317 230.815V234.522H201.567V236.208H189.482V230.815H191.317ZM221.015 236.208H219.162V219.008H221.015V236.208ZM211.507 233.966C210.147 233.966 209.041 233.496 208.189 232.557C207.348 231.605 206.928 230.154 206.928 228.201V225.588C206.928 223.635 207.348 222.19 208.189 221.25C209.041 220.299 210.147 219.823 211.507 219.823C212.853 219.823 213.947 220.299 214.787 221.25C215.628 222.19 216.048 223.635 216.048 225.588V228.201C216.048 230.154 215.628 231.605 214.787 232.557C213.947 233.496 212.853 233.966 211.507 233.966ZM211.507 232.279C212.322 232.279 212.977 231.951 213.471 231.297C213.966 230.629 214.213 229.591 214.213 228.183V225.606C214.213 224.185 213.966 223.147 213.471 222.492C212.977 221.837 212.322 221.51 211.507 221.51C210.679 221.51 210.018 221.837 209.523 222.492C209.029 223.147 208.782 224.185 208.782 225.606V228.183C208.782 229.591 209.029 230.629 209.523 231.297C210.03 231.951 210.691 232.279 211.507 232.279ZM247.564 225.236H250.066V227.386H247.564V236.283H245.192V218.971H247.564V225.236ZM234.126 222.418V220.25H242.485V221.955C242.485 224.389 241.849 226.657 240.576 228.757C239.316 230.846 237.487 232.699 235.09 234.318L233.626 232.464C235.059 231.525 236.258 230.487 237.222 229.35C238.198 228.214 238.921 227.058 239.39 225.884C239.86 224.698 240.094 223.543 240.094 222.418H234.126ZM266.326 236.283V218.971H268.699V236.283H266.326ZM260.488 222.882C260.488 224.105 260.339 225.285 260.043 226.422L264.918 232.242L263.175 233.799L259.116 228.943C258.313 230.648 257.096 232.322 255.465 233.966L253.796 232.39C255.292 230.87 256.391 229.363 257.096 227.868C257.812 226.36 258.171 224.698 258.171 222.882V222.418H254.482V220.25H264.232V222.418H260.488V222.882ZM286.367 222.029H275.635V220.342H288.202V221.844C288.202 223.067 288.122 224.439 287.961 225.958C287.801 227.478 287.584 228.986 287.313 230.481L285.496 230.184C285.756 228.788 285.966 227.361 286.126 225.903C286.287 224.445 286.367 223.265 286.367 222.363V222.029ZM281.678 226.329V233.224H290.093V234.929H273.93V233.224H279.843V226.329H281.678ZM314.121 219.008H315.975V228.034H314.121V219.008ZM306.54 224.661C305.65 225.909 304.254 227.046 302.351 228.071L301.424 226.57C302.994 225.717 304.143 224.809 304.872 223.845C305.613 222.882 305.984 221.813 305.984 220.639V219.564H307.801V220.639C307.801 221.504 307.658 222.332 307.374 223.123L312.323 226.236L311.378 227.719L306.54 224.661ZM313.824 230.74V234.54H316.512V236.208H303.964V234.54H306.67V230.74H304.149V229.109H316.345V230.74H313.824ZM312.027 230.74H308.468V234.54H312.027V230.74ZM328.175 226.292C326.692 226.292 325.506 225.977 324.616 225.347C323.739 224.717 323.3 223.845 323.3 222.733C323.3 221.621 323.739 220.756 324.616 220.138C325.506 219.508 326.692 219.193 328.175 219.193H330.826C332.309 219.193 333.489 219.508 334.366 220.138C335.243 220.756 335.682 221.621 335.682 222.733C335.682 223.845 335.243 224.717 334.366 225.347C333.489 225.977 332.309 226.292 330.826 226.292H328.175ZM330.511 224.679C331.561 224.679 332.377 224.506 332.957 224.161C333.55 223.815 333.847 223.345 333.847 222.752C333.847 222.134 333.557 221.658 332.976 221.325C332.395 220.979 331.573 220.806 330.511 220.806H328.49C327.428 220.806 326.606 220.979 326.025 221.325C325.444 221.658 325.154 222.134 325.154 222.752C325.154 223.345 325.444 223.815 326.025 224.161C326.618 224.506 327.44 224.679 328.49 224.679H330.511ZM337.573 229.74H321.41V228.053H337.573V229.74ZM335.867 236.208H323.56V231.222H325.413V234.485H335.867V236.208ZM356.467 225.291C355.256 226.947 353.235 228.43 350.406 229.74L349.553 228.146C351.777 227.083 353.402 225.989 354.428 224.865C355.453 223.728 355.966 222.511 355.966 221.213V219.897H357.82V221.213C357.82 222.091 357.659 222.925 357.338 223.716L364.047 228.201L363.047 229.74L356.467 225.291ZM348.719 234.911V233.224H364.882V234.911H348.719ZM381.79 225.643V219.008H383.625V236.208H381.79V227.33H378.954V225.643H381.79ZM373.338 232.094C374.339 232.094 375.395 232.05 376.508 231.964C377.632 231.865 378.707 231.735 379.733 231.575L379.955 233.169C378.991 233.354 377.898 233.496 376.674 233.595C375.463 233.706 374.246 233.762 373.023 233.762H369.816V220.268H378.268V221.936H371.67V226.107H378.083V227.738H371.67V232.094H373.338ZM403.796 236.208H401.961V219.008H403.796V236.208ZM390.172 233.41V220.268H398.699V221.973H392.045V231.723H393.49C395.455 231.723 397.655 231.538 400.089 231.167L400.311 232.816C399.249 233.002 398.093 233.15 396.845 233.261C395.597 233.36 394.374 233.41 393.175 233.41H390.172ZM411.159 238.433H409.639L410.047 233.076H411.919L411.159 238.433ZM430.49 225.236H432.992V227.386H430.49V236.283H428.117V218.971H430.49V225.236ZM417.052 222.418V220.25H425.411V221.955C425.411 224.389 424.775 226.657 423.502 228.757C422.242 230.846 420.413 232.699 418.016 234.318L416.551 232.464C417.985 231.525 419.183 230.487 420.147 229.35C421.123 228.214 421.846 227.058 422.316 225.884C422.785 224.698 423.02 223.543 423.02 222.418H417.052ZM449.252 236.283V218.971H451.624V236.283H449.252ZM443.413 222.882C443.413 224.105 443.265 225.285 442.968 226.422L447.843 232.242L446.101 233.799L442.042 228.943C441.238 230.648 440.021 232.322 438.39 233.966L436.722 232.39C438.217 230.87 439.317 229.363 440.021 227.868C440.738 226.36 441.096 224.698 441.096 222.882V222.418H437.408V220.25H447.157V222.418H443.413V222.882ZM470.053 236.208V219.008H471.869V236.208H470.053ZM466.327 225.643V219.267H468.088V235.856H466.327V227.33H464.381V228.201C464.381 230.166 464.054 231.618 463.399 232.557C462.744 233.496 461.873 233.966 460.785 233.966C459.685 233.966 458.802 233.496 458.135 232.557C457.48 231.618 457.152 230.166 457.152 228.201V225.588C457.152 223.623 457.48 222.171 458.135 221.232C458.802 220.293 459.685 219.823 460.785 219.823C461.873 219.823 462.744 220.293 463.399 221.232C464.054 222.171 464.381 223.623 464.381 225.588V225.643H466.327ZM462.62 225.606C462.62 224.173 462.453 223.135 462.12 222.492C461.798 221.837 461.347 221.51 460.767 221.51C460.186 221.51 459.729 221.837 459.395 222.492C459.074 223.135 458.913 224.173 458.913 225.606V228.183C458.913 229.604 459.08 230.642 459.414 231.297C459.747 231.951 460.198 232.279 460.767 232.279C461.335 232.279 461.786 231.951 462.12 231.297C462.453 230.642 462.62 229.604 462.62 228.183V225.606ZM489.908 224.939V219.008H491.762V236.208H489.908V226.626H485.831V224.939H489.908ZM483.365 222.251C483.365 223.722 483.192 225.106 482.846 226.403L487.944 232.501L486.554 233.688L482.161 228.387C481.333 230.302 480.048 232.131 478.305 233.873L477.008 232.631C478.577 231.049 479.726 229.437 480.455 227.793C481.197 226.138 481.568 224.29 481.568 222.251V220.009H483.365V222.251ZM518.107 219.008V223.326H520.776V224.995H518.107V231.89H516.254V219.008H518.107ZM504.651 219.916H513.01V228.609H504.651V219.916ZM506.448 226.978H511.212V221.547H506.448V226.978ZM507.097 230.815H508.932V234.522H518.997V236.208H507.097V230.815ZM538.278 225.477H540.947V227.163H538.278V236.208H536.424V219.008H538.278V225.477ZM528.176 231.723C530.178 231.723 532.34 231.544 534.663 231.185L534.886 232.816C532.55 233.212 530.209 233.41 527.861 233.41H524.914V220.268H526.786V231.723H528.176ZM558.449 225.477H561.118V227.163H558.449V236.208H556.595V219.008H558.449V225.477ZM548.384 231.723C549.323 231.723 550.361 231.68 551.498 231.593C552.647 231.494 553.759 231.358 554.834 231.185L555.057 232.835C552.697 233.218 550.361 233.41 548.05 233.41H545.085V220.268H553.444V221.973H546.957V231.723H548.384Z" fill="#8E59FF"/>
<g filter="url(#filter3_bd_5578_2830)">
<path d="M523.217 384.005C519.682 376.65 522.779 367.822 530.133 364.288L631.217 315.706C638.572 312.171 647.399 315.268 650.934 322.623L695.915 416.215C699.45 423.569 696.353 432.397 688.998 435.932L587.915 484.513C580.56 488.048 571.732 484.951 568.198 477.597L523.217 384.005Z" fill="white" fill-opacity="0.7" shape-rendering="crispEdges"/>
</g>
<g filter="url(#filter4_bd_5578_2830)">
<path d="M741.232 258.584C744.636 251.168 753.408 247.917 760.824 251.322L862.747 298.116C870.163 301.521 873.415 310.293 870.01 317.709L826.683 412.078C823.278 419.494 814.507 422.745 807.091 419.341L705.168 372.546C697.752 369.141 694.5 360.369 697.905 352.953L741.232 258.584Z" fill="white" fill-opacity="0.7" shape-rendering="crispEdges"/>
</g>
<path d="M608.744 452.315C608.52 452.418 608.294 452.462 608.065 452.448C607.841 452.432 607.633 452.357 607.441 452.223C607.248 452.084 607.093 451.89 606.978 451.639L606.743 451.129C606.63 450.883 606.585 450.644 606.608 450.411C606.629 450.173 606.709 449.963 606.847 449.781C606.985 449.598 607.164 449.456 607.383 449.355C607.602 449.254 607.824 449.212 608.048 449.228C608.277 449.242 608.488 449.319 608.682 449.457C608.874 449.591 609.026 449.781 609.14 450.027L609.374 450.538C609.489 450.788 609.536 451.032 609.515 451.269C609.492 451.502 609.412 451.71 609.274 451.893C609.14 452.074 608.963 452.214 608.744 452.315ZM610.171 454.782L609.419 455.127L610.671 447.965L611.423 447.62L610.171 454.782ZM608.485 451.751C608.659 451.671 608.775 451.545 608.831 451.373C608.885 451.196 608.861 450.996 608.758 450.772L608.561 450.342C608.46 450.123 608.325 449.977 608.155 449.903C607.986 449.829 607.814 449.832 607.639 449.912C607.465 449.993 607.348 450.122 607.289 450.301C607.235 450.478 607.258 450.676 607.359 450.895L607.557 451.324C607.66 451.548 607.796 451.697 607.965 451.771C608.133 451.84 608.306 451.834 608.485 451.751ZM613.425 453.407C613.202 453.51 612.975 453.554 612.747 453.54C612.522 453.524 612.313 453.447 612.12 453.308C611.928 453.174 611.774 452.982 611.659 452.731L611.425 452.221C611.311 451.975 611.266 451.736 611.289 451.503C611.31 451.265 611.39 451.055 611.528 450.873C611.666 450.69 611.845 450.548 612.064 450.447C612.284 450.346 612.506 450.304 612.73 450.32C612.958 450.334 613.17 450.411 613.364 450.549C613.555 450.683 613.708 450.873 613.821 451.119L614.055 451.63C614.171 451.88 614.217 452.122 614.194 452.355C614.173 452.592 614.093 452.802 613.955 452.985C613.821 453.166 613.645 453.306 613.425 453.407ZM613.169 452.85C613.344 452.77 613.458 452.641 613.512 452.465C613.567 452.288 613.542 452.088 613.44 451.864L613.242 451.434C613.141 451.215 613.006 451.069 612.837 450.995C612.667 450.921 612.495 450.924 612.321 451.004C612.146 451.084 612.029 451.214 611.971 451.393C611.916 451.569 611.94 451.767 612.041 451.987L612.238 452.416C612.341 452.64 612.477 452.789 612.647 452.863C612.821 452.935 612.995 452.93 613.169 452.85Z" fill="#767676"/>
<path d="M606.318 456.675C605.946 456.845 605.57 456.912 605.19 456.876C604.815 456.837 604.461 456.686 604.128 456.421C603.793 456.152 603.513 455.774 603.289 455.286L602.804 454.233C602.582 453.749 602.479 453.295 602.495 452.87C602.511 452.446 602.627 452.078 602.842 451.768C603.059 451.451 603.354 451.207 603.725 451.036C604.097 450.866 604.473 450.801 604.856 450.842C605.236 450.879 605.592 451.029 605.925 451.294C606.258 451.558 606.536 451.932 606.758 452.415L607.242 453.469C607.466 453.956 607.572 454.415 607.558 454.844C607.541 455.269 607.424 455.638 607.204 455.95C606.984 456.262 606.689 456.504 606.318 456.675ZM606.04 456.071C606.425 455.894 606.671 455.604 606.779 455.202C606.885 454.796 606.808 454.311 606.549 453.747L606.098 452.767C605.839 452.203 605.522 451.831 605.146 451.651C604.769 451.467 604.388 451.464 604.003 451.641C603.618 451.817 603.373 452.109 603.267 452.516C603.159 452.918 603.235 453.4 603.494 453.964L603.945 454.944C604.204 455.508 604.522 455.882 604.9 456.066C605.275 456.246 605.655 456.247 606.04 456.071Z" fill="#767676"/>
<path d="M601.732 458.782C601.36 458.953 600.984 459.02 600.604 458.983C600.229 458.944 599.875 458.793 599.542 458.528C599.207 458.26 598.927 457.881 598.703 457.394L598.218 456.34C597.996 455.856 597.893 455.402 597.909 454.978C597.925 454.553 598.041 454.185 598.256 453.875C598.474 453.558 598.768 453.314 599.139 453.144C599.511 452.973 599.888 452.908 600.27 452.949C600.65 452.986 601.006 453.136 601.339 453.401C601.672 453.665 601.95 454.039 602.172 454.522L602.656 455.576C602.881 456.064 602.986 456.522 602.972 456.951C602.956 457.376 602.838 457.745 602.618 458.057C602.399 458.37 602.103 458.611 601.732 458.782ZM601.454 458.178C601.839 458.001 602.085 457.711 602.193 457.309C602.299 456.903 602.222 456.418 601.963 455.854L601.512 454.874C601.253 454.31 600.936 453.938 600.561 453.759C600.183 453.574 599.802 453.571 599.417 453.748C599.032 453.925 598.787 454.216 598.681 454.623C598.573 455.025 598.649 455.508 598.908 456.071L599.359 457.051C599.618 457.615 599.936 457.989 600.314 458.174C600.689 458.353 601.069 458.355 601.454 458.178Z" fill="#767676"/>
<path d="M598.812 460.004L598.141 460.313L596.048 455.762L595.267 457.317L594.653 456.989L595.742 454.83L596.312 454.567L598.812 460.004Z" fill="#767676"/>
<path d="M578.904 460.941C578.563 460.199 578.888 459.322 579.63 458.981L587.013 455.587C587.754 455.246 588.632 455.57 588.973 456.312L592.367 463.695C592.708 464.437 592.383 465.314 591.642 465.655L584.259 469.049C583.517 469.39 582.64 469.066 582.299 468.324L578.904 460.941Z" fill="#8E59FF"/>
<path d="M657.03 429.072C656.783 429.185 656.535 429.234 656.283 429.218C656.036 429.2 655.808 429.118 655.597 428.97C655.383 428.818 655.213 428.604 655.087 428.328L654.829 427.767C654.704 427.496 654.655 427.233 654.68 426.977C654.703 426.716 654.791 426.484 654.943 426.283C655.095 426.082 655.291 425.926 655.533 425.815C655.774 425.705 656.018 425.658 656.264 425.676C656.516 425.691 656.748 425.775 656.962 425.928C657.172 426.075 657.34 426.284 657.465 426.555L657.723 427.116C657.849 427.392 657.901 427.66 657.878 427.921C657.853 428.177 657.764 428.406 657.612 428.607C657.465 428.806 657.271 428.961 657.03 429.072ZM658.599 431.785L657.772 432.165L659.15 424.287L659.977 423.906L658.599 431.785ZM656.744 428.451C656.936 428.363 657.063 428.224 657.125 428.035C657.185 427.84 657.158 427.62 657.045 427.374L656.828 426.901C656.717 426.66 656.568 426.499 656.382 426.418C656.195 426.337 656.006 426.34 655.814 426.428C655.622 426.517 655.494 426.659 655.429 426.856C655.37 427.05 655.395 427.268 655.506 427.509L655.723 427.982C655.837 428.228 655.986 428.391 656.173 428.473C656.357 428.549 656.548 428.542 656.744 428.451ZM662.179 430.273C661.933 430.386 661.684 430.435 661.433 430.419C661.186 430.401 660.956 430.316 660.743 430.164C660.532 430.016 660.363 429.805 660.236 429.529L659.978 428.968C659.854 428.697 659.804 428.434 659.83 428.178C659.853 427.917 659.94 427.686 660.092 427.485C660.244 427.283 660.441 427.128 660.682 427.017C660.923 426.906 661.167 426.859 661.414 426.877C661.665 426.892 661.898 426.976 662.111 427.129C662.322 427.276 662.49 427.485 662.614 427.756L662.872 428.317C662.999 428.593 663.05 428.859 663.024 429.115C663.001 429.376 662.914 429.607 662.762 429.808C662.614 430.007 662.42 430.162 662.179 430.273ZM661.897 429.66C662.089 429.572 662.215 429.43 662.275 429.236C662.335 429.041 662.308 428.821 662.195 428.575L661.977 428.103C661.866 427.861 661.718 427.7 661.531 427.619C661.345 427.538 661.156 427.541 660.964 427.629C660.772 427.718 660.644 427.86 660.579 428.057C660.519 428.251 660.545 428.469 660.656 428.71L660.873 429.183C660.986 429.429 661.136 429.593 661.322 429.674C661.514 429.753 661.705 429.748 661.897 429.66Z" fill="#767676"/>
<path d="M654.333 433.88C653.924 434.067 653.511 434.141 653.093 434.101C652.68 434.058 652.29 433.892 651.924 433.601C651.555 433.305 651.248 432.889 651.001 432.353L650.468 431.193C650.224 430.662 650.11 430.162 650.128 429.695C650.146 429.228 650.273 428.823 650.51 428.482C650.749 428.134 651.073 427.865 651.481 427.678C651.89 427.49 652.304 427.418 652.725 427.464C653.143 427.504 653.535 427.67 653.901 427.96C654.267 428.251 654.573 428.662 654.817 429.194L655.35 430.353C655.597 430.89 655.712 431.394 655.697 431.866C655.679 432.333 655.549 432.739 655.308 433.083C655.066 433.426 654.741 433.692 654.333 433.88ZM654.027 433.215C654.451 433.021 654.722 432.702 654.84 432.26C654.957 431.813 654.872 431.279 654.587 430.659L654.092 429.581C653.806 428.961 653.457 428.552 653.044 428.354C652.629 428.152 652.21 428.147 651.787 428.342C651.363 428.537 651.094 428.858 650.977 429.305C650.858 429.747 650.942 430.278 651.227 430.898L651.722 431.976C652.008 432.596 652.358 433.008 652.773 433.21C653.186 433.408 653.604 433.41 654.027 433.215Z" fill="#767676"/>
<path d="M647.699 432.163C648.073 431.991 648.443 431.922 648.811 431.955C649.183 431.987 649.519 432.116 649.82 432.341C650.123 432.56 650.363 432.861 650.539 433.245C650.716 433.629 650.787 434.01 650.753 434.39C650.716 434.764 650.578 435.105 650.338 435.412C650.104 435.722 649.784 435.971 649.375 436.159C648.927 436.365 648.468 436.457 647.999 436.434C647.534 436.409 647.136 436.249 646.804 435.955L647.268 435.312C647.511 435.528 647.787 435.649 648.096 435.674C648.406 435.698 648.716 435.639 649.026 435.497C649.444 435.304 649.723 435.036 649.863 434.692C650.005 434.34 649.987 433.97 649.808 433.581C649.63 433.192 649.363 432.936 649.008 432.813C648.653 432.69 648.277 432.72 647.878 432.903C647.593 433.034 647.382 433.218 647.246 433.453C647.112 433.682 647.051 433.951 647.063 434.262L646.383 434.574L645.083 430.754L648.428 429.216L648.74 429.895L646.03 431.141L646.725 433.254C646.793 433.014 646.913 432.801 647.084 432.615C647.252 432.424 647.457 432.274 647.699 432.163Z" fill="#767676"/>
<path d="M629.277 437.866C628.936 437.125 629.261 436.248 630.003 435.907L637.386 432.512C638.127 432.171 639.005 432.496 639.346 433.237L642.74 440.621C643.081 441.362 642.756 442.24 642.015 442.58L634.632 445.975C633.89 446.316 633.013 445.991 632.672 445.25L629.277 437.866Z" fill="#8E59FF" fill-opacity="0.5"/>
<g filter="url(#filter5_bd_5578_2830)">
<path d="M-49.7833 368.215C-53.3181 360.86 -50.2214 352.032 -42.8666 348.497L58.2169 299.916C65.5717 296.381 74.3995 299.478 77.9342 306.833L113.871 381.606C117.406 388.961 114.309 397.789 106.954 401.324L5.87072 449.905C-1.48407 453.44 -10.3118 450.343 -13.8466 442.988L-49.7833 368.215Z" fill="white" fill-opacity="0.8" shape-rendering="crispEdges"/>
</g>
<path fill-rule="evenodd" clip-rule="evenodd" d="M1.01557 407.871L-2.04419 409.321C-3.29871 409.916 -3.82391 411.41 -3.21724 412.659L-1.76873 415.641C-1.16206 416.89 0.346733 417.42 1.60126 416.825L4.66101 415.375C5.91554 414.78 6.44074 413.285 5.83407 412.037L4.38555 409.055C3.77889 407.806 2.2701 407.276 1.01557 407.871ZM-2.3188 408.756C-3.88696 409.499 -4.54345 411.367 -3.78512 412.928L-2.33661 415.91C-1.57827 417.471 0.307717 418.134 1.87587 417.39L4.93563 415.94C6.50379 415.197 7.16028 413.328 6.40195 411.767L4.95343 408.786C4.1951 407.225 2.30911 406.562 0.740954 407.305L-2.3188 408.756Z" fill="#8E59FF"/>
<path d="M0.570312 368.647L43.7397 348.183L43.9594 348.635L0.790005 369.099L0.570312 368.647ZM43.7381 348.183L71.8105 334.876L72.0302 335.328L43.9578 348.636L43.7381 348.183Z" fill="#8E59FF"/>
<path d="M52.7249 393.652L48.6474 385.259L49.5469 384.832L53.6244 393.226L52.7249 393.652ZM43.6074 389.473L43.2076 388.65L47.2781 386.72L47.6384 387.462C48.2096 388.638 48.4217 389.887 48.2747 391.211C48.1276 392.534 47.6494 393.866 46.84 395.207L45.9477 394.75C46.6889 393.561 47.1275 392.377 47.2636 391.2C47.4057 390.02 47.2571 388.978 46.8177 388.073L46.7693 387.974L43.6074 389.473Z" fill="#161A3F"/>
<path d="M41.9909 392.297L43.2993 391.677L43.6991 392.5L42.3907 393.12L44.5349 397.534L43.6263 397.965L39.5488 389.572L40.4574 389.141L41.9909 392.297ZM35.737 391.39L36.6547 390.955L37.2523 392.185L39.2603 391.233L39.6514 392.038L34.7176 394.377L34.3266 393.572L36.3346 392.62L35.737 391.39ZM37.5628 393.951C37.9505 393.768 38.3414 393.682 38.7354 393.696C39.1295 393.709 39.4906 393.824 39.8188 394.039C40.147 394.254 40.4063 394.558 40.5967 394.95L40.834 395.438C41.0244 395.83 41.1019 396.22 41.0667 396.608C41.0314 396.995 40.8958 397.345 40.6599 397.657C40.427 397.976 40.1167 398.227 39.729 398.41C39.3413 398.594 38.9459 398.678 38.5429 398.661C38.1488 398.647 37.7847 398.535 37.4504 398.322C37.1222 398.107 36.8629 397.803 36.6725 397.411L36.4353 396.923C36.2449 396.531 36.1673 396.141 36.2026 395.753C36.2439 395.363 36.3825 395.012 36.6184 394.699C36.8543 394.387 37.1691 394.138 37.5628 393.951ZM39.7057 395.417C39.527 395.049 39.2728 394.81 38.9433 394.699C38.6198 394.585 38.2914 394.607 37.9583 394.765C37.619 394.926 37.3901 395.168 37.2714 395.492C37.1528 395.815 37.1828 396.16 37.3615 396.528L37.5636 396.944C37.7452 397.318 38.0022 397.563 38.3347 397.68C38.6643 397.791 38.9987 397.766 39.3379 397.605C39.6711 397.447 39.894 397.208 40.0066 396.888C40.1223 396.558 40.0894 396.207 39.9078 395.833L39.7057 395.417Z" fill="#161A3F"/>
<path d="M29.7619 396.671C29.4237 397.432 28.6917 398.272 27.5659 399.192L26.9292 398.525C27.7934 397.819 28.3841 397.187 28.7016 396.628C29.016 396.064 29.0752 395.579 28.8789 395.175L28.7075 394.823L29.5889 394.405L29.7603 394.758C29.9097 395.065 29.9852 395.382 29.9869 395.707L33.5389 395.426L33.5809 396.34L29.7619 396.671ZM27.2765 400.92L26.903 400.151L34.8261 396.396L35.1996 397.164L27.2765 400.92ZM29.9087 401.575L34.0792 399.598L33.675 398.766L34.5836 398.335L36.1302 401.519L30.1425 404.357L28.5959 401.174L29.5045 400.743L29.9087 401.575ZM30.269 402.317L30.6864 403.176L34.8569 401.199L34.4395 400.34L30.269 402.317Z" fill="#161A3F"/>
<path d="M22.7995 397.511L23.699 397.085L25.6894 401.182L24.7899 401.609L22.7995 397.511ZM20.344 401.891C20.1924 402.653 19.7583 403.5 19.0416 404.434L18.2361 403.903C18.8179 403.152 19.1806 402.472 19.3241 401.863C19.4737 401.25 19.4167 400.673 19.1531 400.13L18.9202 399.651L19.8197 399.224L20.0526 399.704C20.2489 400.108 20.3652 400.524 20.4017 400.951L23.4996 401.208L23.4103 402.151L20.344 401.891ZM22.3681 406.173L22.7547 406.969L27.7339 404.608L28.1074 405.377L22.2196 408.168L21.0992 405.862L25.7785 403.644L25.4094 402.884L20.6937 405.119L20.329 404.369L25.9442 401.707L27.0383 403.959L22.3681 406.173Z" fill="#161A3F"/>
<path d="M66.5205 364.857L65.6209 365.283L61.5434 356.89L62.443 356.464L66.5205 364.857ZM59.1713 366.872L57.3567 363.136L60.5005 361.646L59.5118 359.611L56.3681 361.101L55.9726 360.287L60.025 358.366L61.7957 362.011L58.6519 363.502L59.6845 365.627L60.5295 365.227C61.008 365 61.5187 364.732 62.0616 364.422C62.6075 364.104 63.1205 363.779 63.6004 363.448L64.0917 364.183C63.645 364.506 63.1274 364.837 62.5391 365.175C61.9536 365.52 61.3611 365.834 60.7614 366.118L59.1713 366.872Z" fill="#161A3F"/>
<path d="M52.5357 364.354L52.1579 363.576L53.8024 362.796L52.9193 360.978L53.8279 360.548L56.0512 365.124L55.1426 365.555L54.1803 363.574L52.5357 364.354ZM50.6296 365.791C50.5018 366.572 50.0885 367.439 49.3896 368.393L48.611 367.872C49.1479 367.106 49.485 366.427 49.6223 365.835C49.7627 365.234 49.6997 364.66 49.4331 364.111L47.6159 364.972L47.2248 364.167L51.7679 362.014L52.1589 362.819L50.3144 363.693C50.5048 364.085 50.6199 364.483 50.6597 364.887L53.7427 365.25L53.6487 366.207L50.6296 365.791ZM54.3584 366.472C54.7642 366.279 55.1552 366.187 55.5313 366.194C55.9045 366.195 56.2373 366.29 56.5297 366.477C56.8253 366.656 57.0536 366.912 57.2147 367.243C57.3788 367.581 57.439 367.92 57.3953 368.259C57.3607 368.602 57.227 368.918 56.9945 369.206C56.7648 369.5 56.4471 369.744 56.0413 369.936L54.2059 370.806C53.8061 370.995 53.4151 371.088 53.0329 371.084C52.6598 371.083 52.327 370.988 52.0345 370.8C51.745 370.619 51.5183 370.359 51.3542 370.021C51.1931 369.69 51.1314 369.355 51.1689 369.019C51.2036 368.676 51.3372 368.36 51.5698 368.072C51.8055 367.775 52.1232 367.531 52.523 367.342L54.3584 366.472ZM55.5095 369.187C55.9154 368.994 56.1833 368.763 56.3133 368.494C56.4433 368.225 56.4409 367.951 56.3061 367.674C56.1714 367.397 55.957 367.224 55.663 367.155C55.3689 367.087 55.019 367.149 54.6132 367.341L53.0594 368.078C52.6536 368.27 52.3827 368.503 52.2466 368.775C52.1166 369.044 52.119 369.318 52.2537 369.595C52.3885 369.872 52.6029 370.045 52.8969 370.113C53.197 370.179 53.5499 370.115 53.9558 369.923L55.5095 369.187Z" fill="#161A3F"/>
<path d="M43.439 370.324L45.6015 369.299L45.9794 370.077L38.0563 373.833L37.6784 373.055L39.85 372.026L39.4018 371.103C38.9554 371.181 38.566 371.154 38.2337 371.023C37.9014 370.891 37.6488 370.647 37.476 370.291C37.2329 369.791 37.2603 369.311 37.5584 368.85C37.8564 368.39 38.3719 367.986 39.1049 367.639L40.4315 367.01C41.1644 366.662 41.8059 366.518 42.3558 366.576C42.9058 366.634 43.3024 366.914 43.5455 367.414C43.7183 367.77 43.7528 368.117 43.649 368.456C43.5512 368.791 43.3318 369.107 42.9908 369.402L43.439 370.324ZM38.389 369.87C38.512 370.123 38.7451 370.25 39.0882 370.25C39.4312 370.251 39.8663 370.126 40.3933 369.877L41.4018 369.398C41.9228 369.152 42.2903 368.896 42.5045 368.631C42.7218 368.357 42.7705 368.097 42.6504 367.85C42.5273 367.596 42.2943 367.469 41.9512 367.469C41.6081 367.468 41.1731 367.593 40.6461 367.843L39.6375 368.321C39.1105 368.571 38.7399 368.828 38.5257 369.093C38.3115 369.357 38.266 369.616 38.389 369.87ZM40.7132 371.617L42.5758 370.734L42.1892 369.938L41.2668 370.386L40.3265 370.821L40.7132 371.617ZM43.3281 372.213C43.7703 372.003 44.1811 371.89 44.5605 371.874C44.943 371.848 45.2718 371.911 45.5466 372.063C45.8275 372.211 46.0398 372.433 46.1833 372.729C46.403 373.181 46.3939 373.638 46.156 374.099C45.9242 374.558 45.4751 374.945 44.8088 375.261L42.8825 376.174C42.2162 376.49 41.6265 376.595 41.1132 376.49C40.6061 376.382 40.2426 376.101 40.0229 375.649C39.8794 375.354 39.8337 375.053 39.886 374.746C39.9443 374.436 40.1002 374.144 40.3536 373.868C40.6102 373.583 40.9596 373.336 41.4018 373.126L43.3281 372.213ZM44.2539 374.556C44.7203 374.335 45.0364 374.103 45.2021 373.862C45.3679 373.62 45.3936 373.381 45.2794 373.146C45.1681 372.917 44.9666 372.794 44.6749 372.776C44.3802 372.753 43.9997 372.852 43.5333 373.073L41.9614 373.818C41.495 374.039 41.1789 374.27 41.0132 374.512C40.8445 374.748 40.8158 374.98 40.9271 375.209C41.0414 375.445 41.2458 375.574 41.5404 375.597C41.8351 375.621 42.2156 375.522 42.682 375.301L44.2539 374.556Z" fill="#161A3F"/>
<path d="M35.1593 373.282L33.6259 370.125L34.5072 369.707L38.5847 378.101L37.7034 378.518L35.5592 374.105L34.4779 374.617L36.5387 378.859L35.6846 379.264L31.7521 371.169L32.6062 370.764L34.0781 373.794L35.1593 373.282ZM31.8063 378.621C32.5392 378.274 33.2595 377.862 33.9671 377.385L34.4446 378.138C33.7579 378.627 32.9693 379.082 32.0789 379.504L30.8886 380.069L27.7734 373.656L28.682 373.225L31.3974 378.815L31.8063 378.621Z" fill="#161A3F"/>
<path d="M27.6039 383.305L26.6953 383.735L22.6178 375.342L23.5264 374.911L27.6039 383.305ZM21.5038 382.046C21.0737 382.25 20.6465 382.352 20.2221 382.353C19.8009 382.345 19.4097 382.223 19.0487 381.986C18.6877 381.749 18.3886 381.386 18.1513 380.898L18.0723 380.735C17.835 380.247 17.7357 379.789 17.7745 379.363C17.8104 378.93 17.9584 378.552 18.2185 378.229C18.4818 377.896 18.8284 377.628 19.2585 377.424C19.6886 377.22 20.1142 377.122 20.5355 377.13C20.9598 377.13 21.3509 377.252 21.7088 377.498C22.0698 377.735 22.3689 378.097 22.6062 378.586L22.6853 378.749C22.9226 379.237 23.0218 379.694 22.983 380.121C22.9503 380.544 22.8023 380.922 22.539 381.255C22.2789 381.578 21.9338 381.842 21.5038 382.046ZM21.1039 381.223C21.5037 381.033 21.7722 380.758 21.9095 380.396C22.0467 380.034 22.004 379.624 21.7814 379.166L21.7067 379.012C21.4841 378.554 21.187 378.264 20.8154 378.144C20.4438 378.023 20.0581 378.058 19.6583 378.247C19.2525 378.44 18.9809 378.717 18.8437 379.079C18.7125 379.437 18.7582 379.846 18.9809 380.304L19.0556 380.458C19.2782 380.916 19.5723 381.207 19.9378 381.331C20.3094 381.451 20.6981 381.415 21.1039 381.223ZM19.875 385.366L19.4297 384.565L20.9562 383.841C21.471 383.597 22.0893 383.274 22.8109 382.873C23.5325 382.471 24.2045 382.075 24.8266 381.684L25.3132 382.432C24.7333 382.818 24.0734 383.217 23.3336 383.627C22.6028 384.04 21.9163 384.399 21.2742 384.703L19.875 385.366Z" fill="#161A3F"/>
<path d="M14.4395 379.22L15.2919 380.975L16.6003 380.355L17.0001 381.178L15.6917 381.798L16.6628 383.797L15.7542 384.227L13.5309 379.651L14.4395 379.22ZM12.43 381.297C12.8577 382.177 12.8893 383.078 12.5249 384C12.1666 384.919 11.4617 385.869 10.4104 386.85L9.67842 386.217C10.5164 385.442 11.1072 384.694 11.4508 383.975C11.8005 383.253 11.8751 382.624 11.6746 382.089L8.61259 383.54L8.21275 382.717L12.2015 380.826L12.43 381.297ZM15.079 385.093C15.4788 384.903 15.8668 384.812 16.2429 384.819C16.616 384.82 16.9488 384.915 17.2413 385.102C17.5308 385.284 17.7561 385.541 17.9172 385.873C18.0812 386.21 18.1445 386.547 18.1069 386.884C18.0722 387.227 17.9386 387.543 17.706 387.831C17.4764 388.125 17.1617 388.367 16.7619 388.557L14.981 389.401C14.5812 389.59 14.1933 389.682 13.8172 389.674C13.444 389.673 13.1112 389.579 12.8188 389.391C12.5293 389.209 12.3025 388.95 12.1384 388.612C11.9773 388.28 11.9156 387.946 11.9532 387.609C11.9878 387.266 12.1214 386.951 12.354 386.663C12.5837 386.368 12.8984 386.126 13.2982 385.937L15.079 385.093ZM16.2211 387.812C16.6208 387.622 16.8857 387.393 17.0157 387.123C17.1457 386.854 17.1433 386.581 17.0086 386.303C16.8738 386.026 16.6595 385.853 16.3654 385.785C16.0714 385.716 15.7245 385.777 15.3247 385.966L13.8346 386.673C13.4348 386.862 13.1699 387.092 13.0399 387.361C12.9099 387.63 12.9123 387.904 13.0471 388.181C13.1818 388.459 13.3962 388.631 13.6902 388.7C13.9842 388.768 14.3311 388.707 14.7309 388.518L16.2211 387.812Z" fill="#161A3F"/>
<path d="M71.93 340.04L67.8525 331.646L68.752 331.22L72.8295 339.613L71.93 340.04ZM62.8125 335.86L62.4126 335.037L66.4832 333.108L66.8435 333.849C67.4147 335.025 67.6268 336.275 67.4797 337.598C67.3327 338.922 66.8545 340.254 66.0451 341.594L65.1528 341.138C65.894 339.948 66.3326 338.765 66.4687 337.588C66.6108 336.408 66.4621 335.365 66.0228 334.461L65.9744 334.362L62.8125 335.86Z" fill="#161A3F"/>
<path d="M54.052 338.409L59.7763 335.696L60.141 336.446L55.3253 338.729L55.9932 340.104L60.8997 337.778L61.2732 338.547L55.4581 341.304L54.052 338.409ZM63.0829 339.603L55.1598 343.359L54.782 342.581L62.705 338.825L63.0829 339.603ZM64.0748 343.762L57.9599 346.66L56.5407 343.739L62.5284 340.901L62.9107 341.688L57.8315 344.095L58.4862 345.443L63.6925 342.975L64.0748 343.762Z" fill="#161A3F"/>
<path d="M600.931 375.438L601.638 376.94L604.565 375.563L604.994 376.474L598.143 379.698L597.715 378.787L600.642 377.409L599.934 375.907L597.809 376.907L595.974 373.007L601.158 370.567L601.58 371.462L597.384 373.437L598.38 375.554L602.646 373.547L603.064 374.434L600.931 375.438Z" fill="#161A3F"/>
<path d="M595.753 377.402L594.756 377.871L593.881 376.01L592.456 376.681L592.042 375.801L593.467 375.13L592.895 373.916L593.892 373.447L595.753 377.402ZM591.021 377.974C590.897 378.641 590.576 379.353 590.058 380.111L589.151 379.577C589.603 378.908 589.87 378.304 589.952 377.764C590.039 377.222 589.97 376.713 589.746 376.235L589.522 375.76L590.495 375.302L590.719 375.777C590.904 376.172 591.017 376.559 591.057 376.94L593.587 377.366L593.412 378.389L591.021 377.974ZM594.222 378.512C594.564 378.351 594.901 378.272 595.232 378.274C595.56 378.272 595.852 378.353 596.107 378.518C596.368 378.681 596.569 378.913 596.711 379.214C596.855 379.52 596.905 379.823 596.862 380.122C596.827 380.424 596.703 380.701 596.492 380.952C596.289 381.207 596.013 381.416 595.665 381.579L594.015 382.356C593.672 382.517 593.336 382.596 593.005 382.594C592.681 382.594 592.39 382.512 592.129 382.35C591.876 382.19 591.678 381.957 591.534 381.65C591.392 381.349 591.339 381.048 591.374 380.746C591.415 380.442 591.538 380.165 591.744 379.916C591.953 379.659 592.229 379.45 592.571 379.289L594.222 378.512ZM595.107 380.758C595.398 380.621 595.593 380.456 595.693 380.264C595.797 380.069 595.803 379.872 595.71 379.675C595.618 379.478 595.464 379.36 595.249 379.322C595.037 379.276 594.786 379.321 594.496 379.458L593.125 380.103C592.835 380.239 592.64 380.404 592.54 380.597C592.438 380.784 592.434 380.976 592.527 381.174C592.622 381.376 592.774 381.498 592.984 381.539C593.195 381.585 593.447 381.539 593.737 381.403L595.107 380.758Z" fill="#161A3F"/>
<path d="M586.098 377.104L586.696 378.372L587.747 377.878L588.172 378.781L587.121 379.275L587.765 380.646L586.769 381.115L585.102 377.573L586.098 377.104ZM586.041 381.001C585.224 381.582 584.314 382.108 583.313 382.58L581.935 383.228L580.458 380.091L584.094 378.38L584.493 379.228L581.862 380.467L582.54 381.907L583.085 381.651C583.905 381.265 584.725 380.793 585.547 380.235L586.041 381.001ZM588.92 383.098L585.129 384.882L585.356 385.365L589.365 383.478L589.757 384.311L584.751 386.667L583.755 384.549L587.546 382.765L587.337 382.321L583.507 384.124L583.126 383.314L587.952 381.043L588.92 383.098Z" fill="#161A3F"/>
<path d="M576.819 387.88L576.471 387.141L578.315 386.273L576.194 381.765L577.191 381.296L579.898 387.049L578.902 387.518L578.664 387.012L576.819 387.88ZM574.656 386.093C574.059 386.374 573.517 386.483 573.031 386.42C572.551 386.355 572.208 386.104 572.002 385.668L571.966 385.591C571.756 385.144 571.779 384.715 572.035 384.303C572.296 383.888 572.725 383.541 573.322 383.26C573.914 382.981 574.45 382.875 574.931 382.94C575.417 383.003 575.765 383.257 575.975 383.704L576.012 383.782C576.217 384.218 576.189 384.643 575.927 385.057C575.671 385.47 575.247 385.815 574.656 386.093ZM572.929 385.213C573.017 385.4 573.184 385.499 573.43 385.51C573.674 385.516 573.957 385.443 574.278 385.292C574.6 385.14 574.834 384.97 574.979 384.781C575.128 384.584 575.158 384.393 575.07 384.206L575.044 384.151C574.956 383.964 574.789 383.865 574.543 383.855C574.297 383.844 574.016 383.913 573.699 384.062C573.378 384.213 573.143 384.387 572.994 384.584C572.846 384.78 572.816 384.972 572.904 385.159L572.929 385.213ZM574.677 387.633C574.56 387.695 574.39 387.778 574.167 387.883L572.991 388.436L572.564 387.629L573.872 387.014C574.328 386.799 574.862 386.525 575.473 386.194C576.082 385.856 576.651 385.525 577.183 385.199L577.661 385.953C577.103 386.317 576.425 386.715 575.627 387.148C575.78 387.539 575.923 387.925 576.058 388.305L575.079 388.69C575 388.467 574.866 388.115 574.677 387.633ZM575.775 388.714L576.171 389.555L580.452 387.54L580.877 388.443L575.599 390.927L574.779 389.183L575.775 388.714Z" fill="#161A3F"/>
<path d="M573.233 392.041L572.237 392.51L568.815 385.24L569.811 384.771L573.233 392.041ZM566.821 393.652L564.176 388.031L567.881 386.287L568.31 387.198L565.609 388.47L567.397 392.268L567.942 392.012C568.736 391.638 569.576 391.154 570.462 390.559L570.993 391.384C570.085 392.014 569.157 392.553 568.207 393L566.821 393.652Z" fill="#161A3F"/>
<path d="M562.705 391.415L561.433 388.714L562.43 388.245L565.852 395.516L564.855 395.985L563.133 392.326L562.09 392.817L561.662 391.906L562.705 391.415ZM560.653 395.643C561.463 395.262 562.261 394.803 563.049 394.268L563.569 395.069C562.83 395.613 561.941 396.13 560.903 396.618L559.432 397.311L556.717 391.542L560.36 389.828L560.781 390.723L558.127 391.972L558.838 393.483L561.422 392.266L561.833 393.138L559.248 394.354L559.999 395.95L560.653 395.643Z" fill="#161A3F"/>
<path d="M553.326 395.924C553.109 396.85 552.546 397.841 551.635 398.897L550.773 398.257C551.515 397.369 551.985 396.596 552.183 395.939C552.383 395.274 552.363 394.685 552.121 394.171L551.864 393.626L552.861 393.157L553.117 393.702C553.291 394.07 553.392 394.454 553.421 394.852L557.062 395.335L556.905 396.417L553.326 395.924ZM551.925 401.452L551.496 400.541L558.347 397.317L558.775 398.228L551.925 401.452Z" fill="#161A3F"/>
<path fill-rule="evenodd" clip-rule="evenodd" d="M580.768 438.215C588.613 434.523 591.979 425.171 588.287 417.326C584.595 409.482 575.242 406.116 567.398 409.808C559.553 413.5 556.187 422.852 559.879 430.697C563.571 438.541 572.923 441.907 580.768 438.215ZM580.881 438.456C588.859 434.701 592.282 425.191 588.527 417.213C584.773 409.236 575.262 405.812 567.284 409.567C559.307 413.322 555.884 422.832 559.638 430.81C563.393 438.787 572.904 442.211 580.881 438.456Z" fill="#8E59FF"/>
<path d="M582.772 421.141L582.317 421.356L580.829 418.193L581.284 417.979L582.772 421.141ZM579.5 422.396C579.057 422.604 578.639 422.662 578.245 422.569C577.855 422.475 577.56 422.214 577.36 421.788L577.303 421.668C577.103 421.242 577.09 420.849 577.265 420.488C577.443 420.121 577.753 419.834 578.196 419.625C578.483 419.491 578.764 419.42 579.039 419.414C579.312 419.404 579.562 419.469 579.788 419.61C580.016 419.745 580.198 419.956 580.333 420.242L580.389 420.362C580.524 420.649 580.571 420.923 580.529 421.185C580.492 421.445 580.383 421.679 580.203 421.887C580.021 422.091 579.787 422.261 579.5 422.396ZM579.309 421.991C579.626 421.842 579.843 421.642 579.961 421.39C580.082 421.133 580.073 420.856 579.934 420.561L579.89 420.466C579.751 420.171 579.544 419.99 579.271 419.923C578.999 419.85 578.706 419.888 578.389 420.037C578.073 420.185 577.855 420.389 577.734 420.646C577.615 420.898 577.626 421.171 577.764 421.466L577.809 421.561C577.948 421.857 578.153 422.041 578.425 422.114C578.698 422.181 578.993 422.14 579.309 421.991ZM584.032 423.817L580.281 425.582L579.218 423.324L582.969 421.559L584.032 423.817ZM579.858 423.518L580.537 424.96L583.383 423.62L582.704 422.178L579.858 423.518Z" fill="#8E59FF"/>
<path d="M577.666 426.812L574.918 420.974L575.361 420.766L578.108 426.604L577.666 426.812ZM573.138 424.153L574.53 423.498L573.672 421.676L574.109 421.471L576.761 427.107L576.325 427.312L574.726 423.915L573.335 424.57L573.138 424.153ZM573.472 427.094C573.995 426.848 574.545 426.535 575.123 426.155L575.364 426.536C574.835 426.898 574.247 427.231 573.602 427.535L572.881 427.874L570.812 423.479L571.267 423.264L573.143 427.249L573.472 427.094Z" fill="#8E59FF"/>
<path d="M570.837 426.913L570.388 427.125L568.843 423.842L569.292 423.631L570.837 426.913ZM566.184 428.764L564.915 426.069L565.364 425.858L566.436 428.135L566.961 427.888C567.311 427.723 567.695 427.522 568.114 427.283C568.532 427.045 568.919 426.806 569.275 426.567L569.51 426.935C569.182 427.167 568.8 427.411 568.364 427.668C567.927 427.92 567.497 428.145 567.075 428.344L566.184 428.764ZM572.063 429.519L571.614 429.731L570.775 427.947L567.41 429.531L567.216 429.12L571.03 427.325L572.063 429.519Z" fill="#8E59FF"/>
<path d="M627.047 399.084C630.802 407.062 627.378 416.573 619.401 420.327C611.423 424.082 601.912 420.658 598.158 412.681C594.403 404.703 597.826 395.193 605.804 391.438C613.782 387.683 623.292 391.107 627.047 399.084Z" fill="#8E59FF"/>
<path d="M49.7612 343.692L48.0349 344.51L48.9839 346.464L44.8043 348.445L42.6777 344.068L43.55 343.654L44.2222 345.038L46.6573 343.884L45.985 342.5L46.8573 342.087L47.6482 343.715L49.3746 342.896L48.3903 340.87L49.2989 340.439L52.3527 346.725L51.4441 347.156L49.7612 343.692ZM44.6045 345.825L45.2899 347.236L47.725 346.082L47.0396 344.671L44.6045 345.825ZM47.4495 348.46L48.3063 350.224L53.331 347.842L53.7308 348.665L47.7976 351.477L46.5409 348.891L47.4495 348.46Z" fill="#161A3F"/>
<path d="M621.767 402.789L621.135 403.087L619.643 399.918L620.276 399.62L621.767 402.789ZM618.443 404.114C617.979 404.333 617.544 404.393 617.138 404.296C616.736 404.197 616.43 403.926 616.222 403.483L616.177 403.388C615.967 402.941 615.952 402.531 616.131 402.158C616.315 401.783 616.639 401.486 617.103 401.268C617.563 401.052 617.994 400.993 618.396 401.092C618.802 401.19 619.11 401.462 619.321 401.909L619.365 402.004C619.574 402.446 619.586 402.855 619.402 403.23C619.222 403.603 618.902 403.898 618.443 404.114ZM618.184 403.564C618.462 403.433 618.654 403.255 618.759 403.031C618.869 402.804 618.86 402.556 618.733 402.286L618.698 402.21C618.571 401.94 618.388 401.776 618.149 401.718C617.909 401.656 617.648 401.692 617.365 401.825C617.083 401.958 616.889 402.137 616.783 402.361C616.676 402.582 616.686 402.827 616.813 403.097L616.848 403.173C616.975 403.443 617.159 403.609 617.399 403.671C617.644 403.731 617.906 403.695 618.184 403.564ZM623.038 405.49L619.155 407.318L618.059 404.99L621.943 403.162L623.038 405.49ZM618.954 405.249L619.519 406.451L622.138 405.219L621.572 404.017L618.954 405.249Z" fill="white"/>
<path d="M616.517 408.557L613.755 402.687L614.368 402.399L617.131 408.268L616.517 408.557ZM612.047 405.74L613.318 405.141L612.493 403.389L613.088 403.109L615.752 408.77L615.158 409.05L613.589 405.717L612.318 406.315L612.047 405.74ZM612.432 408.61C612.942 408.37 613.444 408.085 613.938 407.755L614.263 408.281C613.784 408.62 613.234 408.936 612.614 409.227L611.786 409.617L609.675 405.133L610.308 404.835L612.147 408.744L612.432 408.61Z" fill="white"/>
<path d="M609.827 408.561L609.201 408.856L607.65 405.561L608.276 405.266L609.827 408.561ZM605.068 410.515L603.758 407.732L604.397 407.432L605.436 409.639L605.923 409.41C606.26 409.251 606.619 409.062 606.999 408.841C607.38 408.621 607.744 408.393 608.091 408.157L608.429 408.678C608.092 408.914 607.72 409.151 607.312 409.39C606.908 409.626 606.499 409.842 606.086 410.036L605.068 410.515ZM611.068 411.199L610.442 411.494L609.644 409.799L606.33 411.358L606.059 410.783L609.999 408.928L611.068 411.199Z" fill="white"/>
<path fill-rule="evenodd" clip-rule="evenodd" d="M658.547 401.609C666.392 397.917 669.758 388.564 666.066 380.72C662.374 372.875 653.022 369.509 645.177 373.201C637.332 376.893 633.966 386.245 637.658 394.09C641.35 401.934 650.703 405.301 658.547 401.609ZM658.661 401.849C666.638 398.095 670.061 388.584 666.307 380.606C662.552 372.629 653.041 369.206 645.064 372.96C637.086 376.715 633.663 386.226 637.418 394.203C641.172 402.181 650.683 405.604 658.661 401.849Z" fill="#8E59FF"/>
<path d="M660.132 384.732L659.676 384.947L658.188 381.784L658.643 381.57L660.132 384.732ZM656.859 385.987C656.416 386.195 655.998 386.253 655.604 386.16C655.215 386.065 654.919 385.805 654.719 385.379L654.662 385.259C654.462 384.833 654.449 384.44 654.625 384.079C654.802 383.712 655.113 383.425 655.555 383.216C655.842 383.081 656.123 383.011 656.398 383.005C656.672 382.995 656.921 383.06 657.147 383.201C657.376 383.336 657.557 383.546 657.692 383.833L657.749 383.953C657.884 384.24 657.93 384.514 657.889 384.776C657.851 385.036 657.742 385.27 657.562 385.478C657.38 385.682 657.146 385.852 656.859 385.987ZM656.669 385.582C656.985 385.433 657.202 385.233 657.321 384.981C657.442 384.724 657.433 384.447 657.294 384.152L657.249 384.057C657.11 383.762 656.904 383.581 656.63 383.514C656.359 383.441 656.065 383.479 655.749 383.627C655.433 383.776 655.214 383.98 655.093 384.237C654.975 384.489 654.985 384.762 655.124 385.057L655.168 385.152C655.307 385.447 655.513 385.632 655.784 385.705C656.057 385.772 656.352 385.731 656.669 385.582ZM661.391 387.408L657.64 389.173L656.578 386.915L660.328 385.15L661.391 387.408ZM657.217 387.108L657.896 388.551L660.742 387.211L660.063 385.769L657.217 387.108Z" fill="#8E59FF"/>
<path d="M655.027 390.403L652.279 384.565L652.722 384.356L655.47 390.194L655.027 390.403ZM650.5 387.743L651.891 387.088L651.034 385.267L651.47 385.061L654.123 390.697L653.686 390.902L652.088 387.506L650.696 388.161L650.5 387.743ZM650.833 390.684C651.356 390.438 651.907 390.125 652.485 389.745L652.726 390.126C652.196 390.489 651.609 390.822 650.963 391.125L650.242 391.465L648.173 387.069L648.629 386.855L650.504 390.839L650.833 390.684Z" fill="#8E59FF"/>
<path d="M648.196 390.504L647.747 390.716L646.202 387.433L646.651 387.222L648.196 390.504ZM643.543 392.354L642.275 389.66L642.724 389.449L643.796 391.726L644.32 391.479C644.67 391.314 645.055 391.112 645.473 390.874C645.892 390.636 646.279 390.397 646.635 390.158L646.87 390.526C646.541 390.758 646.159 391.002 645.724 391.259C645.286 391.511 644.856 391.736 644.435 391.935L643.543 392.354ZM649.423 393.11L648.974 393.322L648.134 391.538L644.769 393.122L644.576 392.71L648.39 390.915L649.423 393.11Z" fill="#8E59FF"/>
<path d="M42.9868 350.355L44.1226 349.816L44.5268 350.648L43.3911 351.187L44.16 352.769L43.2605 353.196L42.4915 351.613L38.7935 353.366L38.4332 352.624L39.3175 345.885L40.5351 345.308L42.9868 350.355ZM40.1364 346.765L39.4796 352.017L42.0873 350.781L40.1364 346.765Z" fill="#161A3F"/>
<path d="M32.4155 351.915L30.6892 352.734L31.6382 354.687L27.4586 356.669L25.332 352.291L26.2043 351.878L26.8765 353.261L29.3116 352.107L28.6393 350.723L29.5116 350.31L30.3025 351.938L32.0288 351.12L31.0446 349.094L31.9532 348.663L35.007 354.949L34.0984 355.379L32.4155 351.915ZM27.2588 354.048L27.9442 355.459L30.3793 354.305L29.6939 352.894L27.2588 354.048ZM30.1038 356.683L30.9606 358.447L35.9852 356.065L36.3851 356.888L30.4519 359.701L29.1952 357.114L30.1038 356.683Z" fill="#161A3F"/>
<path d="M22.1842 360.583C22.9392 361.294 23.771 361.433 24.6796 361.003C25.2005 360.756 25.5538 360.44 25.7395 360.055C25.9284 359.661 25.9276 359.269 25.7372 358.877C25.5409 358.473 25.2193 358.217 24.7723 358.11C24.3314 358 23.8171 358.084 23.2295 358.363L22.3028 358.802L21.9205 358.015L22.8473 357.576C23.3803 357.323 23.7321 357.012 23.9025 356.642C24.079 356.269 24.075 355.892 23.8905 355.513C23.7089 355.139 23.4275 354.912 23.0463 354.833C22.6622 354.748 22.234 354.818 21.7615 355.042C20.9982 355.404 20.648 356.056 20.7107 356.998L19.7435 357.078C19.6911 356.494 19.7917 355.95 20.0452 355.444C20.2958 354.932 20.7361 354.527 21.366 354.228C21.8385 354.004 22.296 353.887 22.7385 353.878C23.1842 353.859 23.5818 353.949 23.9313 354.147C24.2868 354.342 24.5627 354.641 24.759 355.045C24.9669 355.473 25.0292 355.885 24.9456 356.281C24.8682 356.674 24.683 357.021 24.39 357.323C24.8634 357.255 25.305 357.32 25.7146 357.519C26.1243 357.718 26.4375 358.04 26.6543 358.486C26.8564 358.903 26.9246 359.319 26.8588 359.736C26.796 360.159 26.6102 360.551 26.3014 360.913C25.9927 361.274 25.5839 361.575 25.075 361.817C24.3724 362.15 23.7149 362.254 23.1026 362.129C22.4903 362.003 21.9615 361.712 21.5162 361.256L22.1842 360.583Z" fill="#161A3F"/>
<path d="M18.8168 365.216L17.9082 365.647L13.8307 357.254L14.7393 356.823L18.8168 365.216ZM12.7166 363.958C12.2866 364.161 11.8593 364.264 11.435 364.265C11.0138 364.257 10.6226 364.134 10.2616 363.897C9.90064 363.66 9.6015 363.298 9.36423 362.809L9.28514 362.647C9.04787 362.158 8.94863 361.701 8.98742 361.274C9.02328 360.842 9.17127 360.464 9.43139 360.14C9.69464 359.808 10.0413 359.54 10.4714 359.336C10.9015 359.132 11.3271 359.034 11.7483 359.042C12.1727 359.041 12.5638 359.164 12.9217 359.409C13.2827 359.646 13.5818 360.009 13.8191 360.497L13.8982 360.66C14.1355 361.149 14.2347 361.606 14.1959 362.032C14.1632 362.456 14.0152 362.834 13.7519 363.166C13.4918 363.49 13.1467 363.754 12.7166 363.958ZM12.3168 363.135C12.7166 362.945 12.9851 362.669 13.1223 362.308C13.2596 361.946 13.2169 361.536 12.9943 361.078L12.9196 360.924C12.697 360.466 12.3999 360.176 12.0283 360.056C11.6567 359.935 11.271 359.969 10.8712 360.159C10.4654 360.351 10.1938 360.628 10.0566 360.99C9.92541 361.349 9.97113 361.758 10.1938 362.216L10.2684 362.37C10.4911 362.828 10.7851 363.119 11.1507 363.242C11.5222 363.363 11.911 363.327 12.3168 363.135ZM11.0879 367.278L10.6426 366.476L12.1691 365.753C12.6839 365.509 13.3022 365.186 14.0238 364.785C14.7454 364.383 15.4173 363.987 16.0395 363.595L16.5261 364.344C15.9461 364.73 15.2863 365.128 14.5465 365.538C13.8157 365.951 13.1292 366.31 12.4871 366.615L11.0879 367.278Z" fill="#161A3F"/>
<path d="M5.65042 361.131L6.50283 362.886L7.81122 362.266L8.21107 363.089L6.90267 363.709L7.87371 365.708L6.9651 366.139L4.74181 361.562L5.65042 361.131ZM3.64096 363.208C4.06863 364.088 4.10026 364.989 3.73586 365.911C3.37751 366.83 2.67266 367.78 1.62129 368.761L0.889361 368.129C1.72732 367.353 2.31813 366.606 2.66177 365.886C3.01147 365.164 3.08606 364.535 2.88554 364L-0.176474 365.451L-0.576315 364.628L3.41248 362.738L3.64096 363.208ZM6.28997 367.004C6.68975 366.814 7.0777 366.723 7.4538 366.73C7.82697 366.732 8.15977 366.826 8.45221 367.014C8.74172 367.196 8.96702 367.452 9.12813 367.784C9.29217 368.122 9.35539 368.459 9.3178 368.796C9.28313 369.138 9.14952 369.454 8.91695 369.742C8.68731 370.037 8.3726 370.278 7.97281 370.468L6.19194 371.312C5.79215 371.502 5.40421 371.593 5.02811 371.586C4.65494 371.585 4.32213 371.49 4.0297 371.302C3.74019 371.121 3.51342 370.861 3.34938 370.523C3.18827 370.192 3.12651 369.857 3.16411 369.521C3.19877 369.178 3.33239 368.862 3.56495 368.574C3.79459 368.28 4.10931 368.038 4.50909 367.848L6.28997 367.004ZM7.43199 369.723C7.83178 369.533 8.09666 369.304 8.22665 369.035C8.35664 368.765 8.35427 368.492 8.21952 368.215C8.08478 367.937 7.87039 367.764 7.57636 367.696C7.28234 367.628 6.93543 367.688 6.53564 367.878L5.04552 368.584C4.64574 368.774 4.38085 369.003 4.25086 369.272C4.12087 369.542 4.12324 369.815 4.25799 370.092C4.39273 370.37 4.60712 370.543 4.90115 370.611C5.19517 370.679 5.54208 370.619 5.94187 370.429L7.43199 369.723Z" fill="#161A3F"/>
<ellipse cx="359.267" cy="569.147" rx="96.4426" ry="34.9576" fill="url(#paint4_radial_5578_2830)"/>
</g>
<defs>
<filter id="filter0_bd_5578_2830" x="115.468" y="337.163" width="174.933" height="169.623" filterUnits="userSpaceOnUse" color-interpolation-filters="sRGB">
<feFlood flood-opacity="0" result="BackgroundImageFix"/>
<feGaussianBlur in="BackgroundImageFix" stdDeviation="0.289612"/>
<feComposite in2="SourceAlpha" operator="in" result="effect1_backgroundBlur_5578_2830"/>
<feColorMatrix in="SourceAlpha" type="matrix" values="0 0 0 0 0 0 0 0 0 0 0 0 0 0 0 0 0 0 127 0" result="hardAlpha"/>
<feOffset dy="0.579224"/>
<feGaussianBlur stdDeviation="1.61459"/>
<feComposite in2="hardAlpha" operator="out"/>
<feColorMatrix type="matrix" values="0 0 0 0 0 0 0 0 0 0 0 0 0 0 0 0 0 0 0.2 0"/>
<feBlend mode="normal" in2="effect1_backgroundBlur_5578_2830" result="effect2_dropShadow_5578_2830"/>
<feBlend mode="normal" in="SourceGraphic" in2="effect2_dropShadow_5578_2830" result="shape"/>
</filter>
<filter id="filter1_d_5578_2830" x="86.4372" y="-65.4668" width="545.368" height="93.2841" filterUnits="userSpaceOnUse" color-interpolation-filters="sRGB">
<feFlood flood-opacity="0" result="BackgroundImageFix"/>
<feColorMatrix in="SourceAlpha" type="matrix" values="0 0 0 0 0 0 0 0 0 0 0 0 0 0 0 0 0 0 127 0" result="hardAlpha"/>
<feOffset/>
<feGaussianBlur stdDeviation="8.11638"/>
<feComposite in2="hardAlpha" operator="out"/>
<feColorMatrix type="matrix" values="0 0 0 0 0 0 0 0 0 0 0 0 0 0 0 0 0 0 0.16 0"/>
<feBlend mode="normal" in2="BackgroundImageFix" result="effect1_dropShadow_5578_2830"/>
<feBlend mode="normal" in="SourceGraphic" in2="effect1_dropShadow_5578_2830" result="shape"/>
</filter>
<filter id="filter2_bd_5578_2830" x="126.272" y="202.005" width="473.951" height="52.8542" filterUnits="userSpaceOnUse" color-interpolation-filters="sRGB">
<feFlood flood-opacity="0" result="BackgroundImageFix"/>
<feGaussianBlur in="BackgroundImageFix" stdDeviation="0.289612"/>
<feComposite in2="SourceAlpha" operator="in" result="effect1_backgroundBlur_5578_2830"/>
<feColorMatrix in="SourceAlpha" type="matrix" values="0 0 0 0 0 0 0 0 0 0 0 0 0 0 0 0 0 0 127 0" result="hardAlpha"/>
<feOffset dy="0.579224"/>
<feGaussianBlur stdDeviation="3.54775"/>
<feComposite in2="hardAlpha" operator="out"/>
<feColorMatrix type="matrix" values="0 0 0 0 0 0 0 0 0 0 0 0 0 0 0 0 0 0 0.25 0"/>
<feBlend mode="normal" in2="effect1_backgroundBlur_5578_2830" result="effect2_dropShadow_5578_2830"/>
<feBlend mode="normal" in="SourceGraphic" in2="effect2_dropShadow_5578_2830" result="shape"/>
</filter>
<filter id="filter3_bd_5578_2830" x="517.412" y="310.48" width="184.309" height="180.419" filterUnits="userSpaceOnUse" color-interpolation-filters="sRGB">
<feFlood flood-opacity="0" result="BackgroundImageFix"/>
<feGaussianBlur in="BackgroundImageFix" stdDeviation="0.289612"/>
<feComposite in2="SourceAlpha" operator="in" result="effect1_backgroundBlur_5578_2830"/>
<feColorMatrix in="SourceAlpha" type="matrix" values="0 0 0 0 0 0 0 0 0 0 0 0 0 0 0 0 0 0 127 0" result="hardAlpha"/>
<feOffset dy="0.579224"/>
<feGaussianBlur stdDeviation="2.17209"/>
<feComposite in2="hardAlpha" operator="out"/>
<feColorMatrix type="matrix" values="0 0 0 0 0 0 0 0 0 0 0 0 0 0 0 0 0 0 0.2 0"/>
<feBlend mode="normal" in2="effect1_backgroundBlur_5578_2830" result="effect2_dropShadow_5578_2830"/>
<feBlend mode="normal" in="SourceGraphic" in2="effect2_dropShadow_5578_2830" result="shape"/>
</filter>
<filter id="filter4_bd_5578_2830" x="692.211" y="246.205" width="183.495" height="179.41" filterUnits="userSpaceOnUse" color-interpolation-filters="sRGB">
<feFlood flood-opacity="0" result="BackgroundImageFix"/>
<feGaussianBlur in="BackgroundImageFix" stdDeviation="0.289612"/>
<feComposite in2="SourceAlpha" operator="in" result="effect1_backgroundBlur_5578_2830"/>
<feColorMatrix in="SourceAlpha" type="matrix" values="0 0 0 0 0 0 0 0 0 0 0 0 0 0 0 0 0 0 127 0" result="hardAlpha"/>
<feOffset dy="0.579224"/>
<feGaussianBlur stdDeviation="2.17209"/>
<feComposite in2="hardAlpha" operator="out"/>
<feColorMatrix type="matrix" values="0 0 0 0 0 0 0 0 0 0 0 0 0 0 0 0 0 0 0.2 0"/>
<feBlend mode="normal" in2="effect1_backgroundBlur_5578_2830" result="effect2_dropShadow_5578_2830"/>
<feBlend mode="normal" in="SourceGraphic" in2="effect2_dropShadow_5578_2830" result="shape"/>
</filter>
<filter id="filter5_bd_5578_2830" x="-52.5619" y="297.716" width="169.212" height="155.548" filterUnits="userSpaceOnUse" color-interpolation-filters="sRGB">
<feFlood flood-opacity="0" result="BackgroundImageFix"/>
<feGaussianBlur in="BackgroundImageFix" stdDeviation="0.289612"/>
<feComposite in2="SourceAlpha" operator="in" result="effect1_backgroundBlur_5578_2830"/>
<feColorMatrix in="SourceAlpha" type="matrix" values="0 0 0 0 0 0 0 0 0 0 0 0 0 0 0 0 0 0 127 0" result="hardAlpha"/>
<feOffset dy="0.579224"/>
<feGaussianBlur stdDeviation="0.658868"/>
<feComposite in2="hardAlpha" operator="out"/>
<feColorMatrix type="matrix" values="0 0 0 0 0 0 0 0 0 0 0 0 0 0 0 0 0 0 0.2 0"/>
<feBlend mode="normal" in2="effect1_backgroundBlur_5578_2830" result="effect2_dropShadow_5578_2830"/>
<feBlend mode="normal" in="SourceGraphic" in2="effect2_dropShadow_5578_2830" result="shape"/>
</filter>
<radialGradient id="paint0_radial_5578_2830" cx="0" cy="0" r="1" gradientUnits="userSpaceOnUse" gradientTransform="translate(90.5777 432.753) rotate(90) scale(145.892)">
<stop stop-color="#EEE5FF"/>
<stop offset="1" stop-color="white"/>
</radialGradient>
<radialGradient id="paint1_radial_5578_2830" cx="0" cy="0" r="1" gradientUnits="userSpaceOnUse" gradientTransform="translate(487.49 316.763) rotate(90) scale(75.2268)">
<stop stop-color="#EEE5FF"/>
<stop offset="1" stop-color="white"/>
</radialGradient>
<radialGradient id="paint2_radial_5578_2830" cx="0" cy="0" r="1" gradientUnits="userSpaceOnUse" gradientTransform="translate(622.305 9.77451) rotate(90) scale(75.2268)">
<stop stop-color="#EEE5FF"/>
<stop offset="1" stop-color="white"/>
</radialGradient>
<radialGradient id="paint3_radial_5578_2830" cx="0" cy="0" r="1" gradientUnits="userSpaceOnUse" gradientTransform="translate(41.4875 143.792) rotate(90) scale(108.749 108.677)">
<stop stop-color="#EEE5FF"/>
<stop offset="1" stop-color="white"/>
</radialGradient>
<radialGradient id="paint4_radial_5578_2830" cx="0" cy="0" r="1" gradientUnits="userSpaceOnUse" gradientTransform="translate(359.267 569.147) scale(96.4426 34.9576)">
<stop stop-opacity="0.4"/>
<stop offset="1" stop-color="#737373" stop-opacity="0"/>
</radialGradient>
<clipPath id="clip0_5578_2830">
<rect width="718" height="620" fill="white"/>
</clipPath>
</defs>
</svg>
