<svg width="34" height="28" viewBox="0 0 34 28" fill="none" xmlns="http://www.w3.org/2000/svg">
<path d="M13.9578 6.66155C15.3204 6.66155 16.4553 7.78188 16.1298 9.10502C16.0379 9.47865 15.9248 9.84627 15.7909 10.2056C15.3723 11.3293 14.7588 12.3502 13.9853 13.2102C13.2119 14.0702 12.2936 14.7523 11.2831 15.2178C10.2725 15.6832 9.18937 15.9227 8.09553 15.9227C7.00169 15.9227 5.91856 15.6832 4.90798 15.2178C3.89741 14.7523 2.97918 14.0702 2.20571 13.2102C1.43225 12.3502 0.81871 11.3293 0.400116 10.2056C0.266234 9.84627 0.153134 9.47865 0.0612167 9.10502C-0.264293 7.78188 0.87067 6.66155 2.23326 6.66155H3.22516C4.03994 6.66155 4.67444 7.34261 4.95888 8.10612C5.1295 8.56411 5.37958 8.98024 5.69484 9.33077C6.0101 9.6813 6.38437 9.95935 6.79629 10.1491C7.2082 10.3388 7.64968 10.4364 8.09553 10.4364C8.54138 10.4364 8.98286 10.3388 9.39477 10.1491C9.80668 9.95935 10.181 9.6813 10.4962 9.33077C10.8115 8.98024 11.0616 8.56411 11.2322 8.10612C11.5166 7.34261 12.1511 6.66155 12.9659 6.66155H13.9578Z" fill="#8E59FF" fill-opacity="0.5"/>
<path d="M33.7676 18.7391C33.7676 19.9553 33.5522 21.1595 33.1336 22.2832C32.715 23.4068 32.1015 24.4277 31.328 25.2877C30.5545 26.1477 29.6363 26.8298 28.6257 27.2953C27.6152 27.7607 26.532 28.0002 25.4382 28.0002C24.3444 28.0002 23.2612 27.7607 22.2506 27.2953C21.2401 26.8298 20.3218 26.1477 19.5484 25.2877C18.7749 24.4277 18.1614 23.4068 17.7428 22.2832C17.6089 21.9238 17.4958 21.5562 17.4039 21.1825C17.0784 19.8594 18.2133 18.7391 19.5759 18.7391H20.5678C21.3826 18.7391 22.0171 19.4201 22.3015 20.1836C22.4722 20.6416 22.7222 21.0578 23.0375 21.4083C23.3528 21.7588 23.727 22.0369 24.1389 22.2266C24.5509 22.4163 24.9923 22.5139 25.4382 22.5139C25.884 22.5139 26.3255 22.4163 26.7374 22.2266C27.1493 22.0369 27.5236 21.7588 27.8389 21.4083C28.1541 21.0578 28.4042 20.6416 28.5748 20.1836C28.7455 19.7256 28.8333 19.2348 28.8333 18.7391H33.7676Z" fill="#8E59FF" fill-opacity="0.5"/>
<path d="M28.8333 18.7391H33.7676V8.74971C33.7676 7.38712 32.6631 6.28252 31.3005 6.28252C29.9379 6.28252 28.8333 7.38712 28.8333 8.74971V18.7391Z" fill="#8E59FF" fill-opacity="0.5"/>
<path d="M13.0144 11.2105C14.1646 12.1462 15.0797 13.3943 15.672 14.8355C16.2644 16.2767 16.5143 17.8628 16.3977 19.4421C16.2812 21.0214 15.8022 22.541 15.0064 23.8556C14.2107 25.1702 13.125 26.2358 11.853 26.9505C10.581 27.6652 9.16538 28.0051 7.74151 27.9376C6.31763 27.8701 4.93314 27.3976 3.72047 26.5652C2.50779 25.7327 1.5075 24.5683 0.815268 23.1832C0.485348 22.523 0.230663 21.8233 0.0549539 21.1001C-0.266903 19.7754 0.872388 18.6581 2.23563 18.6632L2.78891 18.6652C3.84515 18.6691 4.6562 19.5736 5.1284 20.5184C5.41056 21.083 5.81829 21.5576 6.31259 21.8969C6.80689 22.2362 7.37122 22.4288 7.9516 22.4563C8.53199 22.4838 9.10901 22.3453 9.62748 22.054C10.1459 21.7627 10.5885 21.3283 10.9129 20.7925C11.2372 20.2566 11.4325 19.6372 11.48 18.9935C11.5275 18.3498 11.4256 17.7033 11.1842 17.1158C10.9427 16.5284 10.5697 16.0196 10.1009 15.6382L13.0144 11.2105Z" fill="#8E59FF" fill-opacity="0.5"/>
<path d="M15.8408 2.43715C15.8408 3.78315 14.8595 4.8743 13.6489 4.8743C12.4383 4.8743 11.4569 3.78315 11.4569 2.43715C11.4569 1.09115 12.4383 0 13.6489 0C14.8595 0 15.8408 1.09115 15.8408 2.43715Z" fill="#8E59FF" fill-opacity="0.5"/>
<path d="M4.83246 2.43715C4.83246 3.78315 3.85109 4.8743 2.6405 4.8743C1.42991 4.8743 0.448536 3.78315 0.448536 2.43715C0.448536 1.09115 1.42991 0 2.6405 0C3.85109 0 4.83246 1.09115 4.83246 2.43715Z" fill="#8E59FF" fill-opacity="0.5"/>
</svg>
