<svg width="45" height="15" viewBox="0 0 45 15" fill="none" xmlns="http://www.w3.org/2000/svg">
<path d="M6.82156 3.2H7.50156V4.13C7.50156 5.84 6.52156 7.25 5.00156 7.83L4.57156 7.16C5.93156 6.67 6.82156 5.48 6.82156 4.13V3.2ZM6.97156 3.2H7.64156V4.19C7.64156 5.41 8.54156 6.54 9.84156 6.99L9.42156 7.65C7.95156 7.11 6.97156 5.76 6.97156 4.19V3.2ZM10.7816 2.74H11.6116V8.21H10.7816V2.74ZM11.3816 5.12H12.9516V5.82H11.3816V5.12ZM5.74156 8.66H11.6116V11.78H10.7816V9.35H5.74156V8.66ZM20.6708 2.74H21.4708V11.78H20.6708V2.74ZM17.3808 5.98H19.1108V6.67H17.3808V5.98ZM18.8608 2.95H19.6408V11.32H18.8608V2.95ZM15.6408 4.14H16.2808V5.29C16.2808 7.27 15.5208 9.14 14.1908 9.98L13.6808 9.36C14.9408 8.6 15.6408 6.95 15.6408 5.29V4.14ZM15.8108 4.14H16.4508V5.29C16.4508 6.86 17.1308 8.43 18.3708 9.15L17.8608 9.76C16.5408 8.96 15.8108 7.18 15.8108 5.29V4.14ZM13.9308 3.79H18.0608V4.48H13.9308V3.79ZM29.12 2.74H29.95V11.78H29.12V2.74ZM29.75 6.45H31.43V7.15H29.75V6.45ZM22.95 4.18H28.28V4.86H22.95V4.18ZM25.65 5.61C26.93 5.61 27.85 6.47 27.85 7.69C27.85 8.91 26.93 9.77 25.65 9.77C24.38 9.77 23.45 8.91 23.45 7.69C23.45 6.47 24.38 5.61 25.65 5.61ZM25.65 6.3C24.83 6.3 24.24 6.87 24.24 7.69C24.24 8.5 24.83 9.08 25.65 9.08C26.47 9.08 27.06 8.5 27.06 7.69C27.06 6.87 26.47 6.3 25.65 6.3ZM25.22 2.85H26.05V4.49H25.22V2.85ZM38.7792 2.74H39.6092V11.78H38.7792V2.74ZM36.1292 3.71H36.9492C36.9492 6.33 35.7692 8.62 32.7492 10.1L32.3092 9.43C34.9192 8.17 36.1292 6.25 36.1292 3.85V3.71ZM32.7192 3.71H36.4892V4.39H32.7192V3.71Z" fill="#DA1E28"/>
<rect x="0.5" y="0.5" width="44" height="14" rx="4.5" stroke="#DA1E28"/>
</svg>
