<svg width="162" height="119" viewBox="0 0 162 119" fill="none" xmlns="http://www.w3.org/2000/svg">
<path d="M74.6562 28.312C77.4177 28.312 79.6889 30.5594 79.3391 33.2986C78.8978 36.7539 77.9988 40.1427 76.6601 43.3744C74.6821 48.1498 71.7829 52.4888 68.128 56.1437C64.4731 59.7986 60.134 62.6979 55.3587 64.6759C50.5833 66.6539 45.4651 67.672 40.2963 67.672C35.1274 67.672 30.0092 66.6539 25.2339 64.6759C20.4585 62.6979 16.1195 59.7986 12.4646 56.1437C8.80965 52.4888 5.91042 48.1498 3.9324 43.3744C2.59375 40.1426 1.69477 36.7539 1.25346 33.2986C0.903603 30.5594 3.17487 28.312 5.9363 28.312L19.2531 28.312C22.0146 28.312 24.1792 30.6031 25.026 33.2315C25.1587 33.6434 25.3082 34.0504 25.4744 34.4515C26.2806 36.3979 27.4623 38.1665 28.9521 39.6562C30.4418 41.146 32.2104 42.3277 34.1568 43.1339C36.1033 43.9402 38.1895 44.3551 40.2963 44.3551C42.4031 44.3551 44.4893 43.9402 46.4357 43.1339C48.3821 42.3277 50.1507 41.146 51.6405 39.6562C53.1302 38.1665 54.3119 36.3979 55.1182 34.4515C55.2843 34.0504 55.4338 33.6434 55.5665 33.2315C56.4133 30.6031 58.578 28.312 61.3394 28.312H74.6562Z" fill="#C1C7CD"/>
<path d="M161.602 79.64C161.602 84.8088 160.583 89.927 158.605 94.7024C156.627 99.4778 153.728 103.817 150.073 107.472C146.418 111.127 142.079 114.026 137.304 116.004C132.529 117.982 127.41 119 122.242 119C117.073 119 111.955 117.982 107.179 116.004C102.404 114.026 98.0648 111.127 94.4099 107.472C90.755 103.817 87.8557 99.4778 85.8777 94.7024C84.5391 91.4706 83.6401 88.0818 83.1988 84.6266C82.8489 81.8874 85.1202 79.64 87.8816 79.64L101.198 79.64C103.96 79.64 106.125 81.9311 106.971 84.5595C107.104 84.9714 107.254 85.3784 107.42 85.7794C108.226 87.7259 109.408 89.4945 110.897 90.9842C112.387 92.4739 114.156 93.6557 116.102 94.4619C118.049 95.2682 120.135 95.6831 122.242 95.6831C124.348 95.6831 126.435 95.2682 128.381 94.4619C130.327 93.6557 132.096 92.474 133.586 90.9842C135.076 89.4945 136.257 87.7259 137.063 85.7794C137.87 83.833 138.285 81.7468 138.285 79.64H161.602Z" fill="#C1C7CD"/>
<path d="M138.285 79.64H161.602V31.6997C161.602 28.9383 159.363 26.6997 156.602 26.6997H143.285C140.523 26.6997 138.285 28.9383 138.285 31.6997V79.64Z" fill="#C1C7CD"/>
<path d="M63.5432 47.644C68.9783 51.6205 73.3022 56.9251 76.1014 63.0503C78.9005 69.1755 80.0812 75.9164 79.5305 82.6284C78.9798 89.3403 76.7162 95.7987 72.9562 101.386C69.1961 106.973 64.0654 111.502 58.0548 114.539C52.0442 117.577 45.3548 119.021 38.6265 118.734C31.8981 118.447 25.3558 116.439 19.6255 112.901C13.8951 109.363 9.16832 104.415 5.89724 98.5279C3.43848 94.103 1.86403 89.2596 1.24319 84.2668C0.902429 81.5265 3.18116 79.2866 5.94257 79.2958L19.259 79.34C22.0204 79.3492 24.1774 81.6475 25.0155 84.2787C25.3372 85.2889 25.7595 86.2686 26.2785 87.2026C27.6118 89.602 29.5385 91.6193 31.8743 93.0613C34.21 94.5034 36.8767 95.322 39.6192 95.4389C42.3618 95.5557 45.0885 94.967 47.5384 93.7289C49.9884 92.4908 52.0797 90.6448 53.6124 88.3675C55.145 86.0901 56.0677 83.4576 56.2921 80.7218C56.5166 77.9859 56.0353 75.2383 54.8944 72.7416C53.7534 70.2449 51.991 68.0827 49.7755 66.4618L63.5432 47.644Z" fill="#C1C7CD"/>
<circle cx="66.5454" cy="10.3579" r="10.3579" fill="#C1C7CD"/>
<circle cx="14.519" cy="10.3579" r="10.3579" fill="#C1C7CD"/>
</svg>
