<svg width="24" height="24" viewBox="0 0 24 24" fill="none" xmlns="http://www.w3.org/2000/svg">
<path d="M11.67 13.02C11.45 13.01 11.23 13 11 13C8.58 13 6.32 13.67 4.39 14.82C3.51 15.34 3 16.32 3 17.35V19C3 19.55 3.45 20 4 20H12.26C11.5534 18.9926 11.1265 17.8158 11.0229 16.5896C10.9192 15.3635 11.1425 14.1318 11.67 13.02Z" fill="#FBFAFF"/>
<path d="M12 12C14.2091 12 16 10.2091 16 8C16 5.79086 14.2091 4 12 4C9.79086 4 8 5.79086 8 8C8 10.2091 9.79086 12 12 12Z" fill="#FBFAFF"/>
<path d="M20.7509 15.99C20.7509 15.77 20.7209 15.57 20.6909 15.36L21.5309 14.63C21.7109 14.47 21.7509 14.21 21.6309 14L21.0409 12.98C20.984 12.8799 20.8938 12.8029 20.7859 12.7627C20.678 12.7225 20.5594 12.7215 20.4509 12.76L19.3909 13.12C19.0709 12.85 18.7109 12.64 18.3109 12.49L18.0909 11.4C18.0678 11.2871 18.0064 11.1856 17.9171 11.1127C17.8279 11.0398 17.7161 11 17.6009 11H16.4209C16.1809 11 15.9809 11.17 15.9309 11.4L15.7109 12.49C15.3109 12.64 14.9509 12.85 14.6309 13.12L13.5709 12.76C13.4623 12.7227 13.3441 12.7242 13.2365 12.7644C13.1289 12.8045 13.0385 12.8807 12.9809 12.98L12.3909 14C12.2709 14.21 12.3109 14.47 12.4909 14.63L13.3309 15.36C13.3009 15.57 13.2709 15.77 13.2709 15.99C13.2709 16.21 13.3009 16.41 13.3309 16.62L12.4909 17.35C12.3109 17.51 12.2709 17.77 12.3909 17.98L12.9809 19C13.1009 19.21 13.3509 19.3 13.5709 19.22L14.6309 18.86C14.9509 19.13 15.3109 19.34 15.7109 19.49L15.9309 20.58C15.9809 20.81 16.1809 20.98 16.4209 20.98H17.6009C17.8409 20.98 18.0409 20.81 18.0909 20.58L18.3109 19.49C18.7109 19.34 19.0709 19.13 19.3909 18.86L20.4509 19.22C20.6809 19.3 20.9209 19.2 21.0409 19L21.6309 17.98C21.7509 17.77 21.7109 17.51 21.5309 17.35L20.6909 16.62C20.7209 16.41 20.7509 16.21 20.7509 15.99ZM17.0009 17.99C15.9009 17.99 15.0009 17.09 15.0009 15.99C15.0009 14.89 15.9009 13.99 17.0009 13.99C18.1009 13.99 19.0009 14.89 19.0009 15.99C19.0009 17.09 18.1009 17.99 17.0009 17.99Z" fill="#FBFAFF"/>
</svg>
