<svg width="32" height="32" viewBox="0 0 32 32" fill="none" xmlns="http://www.w3.org/2000/svg">
<path d="M27.709 4.29001C27.5741 4.15569 27.4036 4.06268 27.2176 4.02194C27.0316 3.9812 26.8378 3.99441 26.659 4.06001L4.65902 12.06C4.46929 12.132 4.30594 12.26 4.19068 12.427C4.07541 12.594 4.01367 12.7921 4.01367 12.995C4.01367 13.1979 4.07541 13.3961 4.19068 13.5631C4.30594 13.7301 4.46929 13.858 4.65902 13.93L13.249 17.36L19.589 11L20.999 12.41L14.629 18.78L18.069 27.37C18.1431 27.5561 18.2714 27.7156 18.4372 27.8279C18.603 27.9403 18.7987 28.0002 18.999 28C19.2011 27.9959 19.3972 27.9306 19.5614 27.8128C19.7257 27.6949 19.8503 27.5301 19.919 27.34L27.919 5.34001C27.9872 5.16309 28.0036 4.97044 27.9664 4.78454C27.9292 4.59863 27.84 4.42712 27.709 4.29001Z" fill="#FBFAFF"/>
</svg>
