<svg width="27" height="27" viewBox="0 0 27 27" fill="none" xmlns="http://www.w3.org/2000/svg">
<circle cx="13.3969" cy="13.3969" r="13.3969" fill="#8E59FF"/>
<path d="M15.713 9.54942H17.329V18.9574H15.841L15.745 17.6134C15.4463 18.1041 15.041 18.4881 14.529 18.7654C14.0277 19.0534 13.4463 19.1974 12.785 19.1974C12.0917 19.1974 11.473 19.0374 10.929 18.7174C10.3957 18.3974 9.97966 17.9388 9.68099 17.3414C9.38232 16.7441 9.23299 16.0561 9.23299 15.2774V9.54942H10.833V15.1974C10.833 16.0294 11.0357 16.6641 11.441 17.1014C11.8463 17.5281 12.4277 17.7414 13.185 17.7414C13.9103 17.7414 14.513 17.5121 14.993 17.0534C15.473 16.5841 15.713 15.9761 15.713 15.2294V9.54942Z" fill="#D0D1D9"/>
</svg>
