<svg width="16" height="16" viewBox="0 0 16 16" fill="none" xmlns="http://www.w3.org/2000/svg">
<path fill-rule="evenodd" clip-rule="evenodd" d="M14.287 0.302999C14.3798 0.210089 14.4901 0.136375 14.6114 0.0860674C14.7327 0.0357596 14.8628 0.00984263 14.9941 0.00979621C15.1255 0.00974978 15.2556 0.0355748 15.3769 0.0857968C15.4983 0.136019 15.6086 0.209654 15.7015 0.302499C15.7944 0.395343 15.8681 0.505579 15.9184 0.626911C15.9687 0.748244 15.9947 0.878297 15.9947 1.00965C15.9947 1.14099 15.9689 1.27107 15.9187 1.39243C15.8685 1.5138 15.7948 1.62409 15.702 1.717L14.995 2.425L13.58 1.01L14.287 0.302999ZM14.287 3.132L8.08828 9.33072C7.65655 9.76245 7.07099 10.005 6.46043 10.005V10.005C6.20614 10.005 6 9.79874 6 9.54446V9.54446C6 8.93348 6.24269 8.34728 6.67468 7.91522L12.873 1.716L14.287 3.132ZM3 13.5C2.86739 13.5 2.74021 13.4473 2.64645 13.3536C2.55268 13.2598 2.5 13.1326 2.5 13V3C2.5 2.86739 2.55268 2.74021 2.64645 2.64645C2.74021 2.55268 2.86739 2.5 3 2.5H9.25C9.44891 2.5 9.63968 2.42098 9.78033 2.28033C9.92098 2.13968 10 1.94891 10 1.75C10 1.55109 9.92098 1.36032 9.78033 1.21967C9.63968 1.07902 9.44891 0.999999 9.25 0.999999H3C2.46957 0.999999 1.96086 1.21071 1.58579 1.58579C1.21071 1.96086 1 2.46957 1 3V13C1 13.5304 1.21071 14.0391 1.58579 14.4142C1.96086 14.7893 2.46957 15 3 15H13C13.5304 15 14.0391 14.7893 14.4142 14.4142C14.7893 14.0391 15 13.5304 15 13V6.75C15 6.55109 14.921 6.36032 14.7803 6.21967C14.6397 6.07902 14.4489 6 14.25 6C14.0511 6 13.8603 6.07902 13.7197 6.21967C13.579 6.36032 13.5 6.55109 13.5 6.75V13C13.5 13.1326 13.4473 13.2598 13.3536 13.3536C13.2598 13.4473 13.1326 13.5 13 13.5H3Z" fill="#FBFAFF"/>
</svg>
